<svg xmlns="http://www.w3.org/2000/svg" xmlns:xlink="http://www.w3.org/1999/xlink" xmlns:lucid="lucid" width="2390" height="1698.64"><g transform="translate(290 98.63859162497445)" lucid:page-tab-id="0_0"><path d="M-1806.4-1259.2h5483.2v3841.6h-5483.2z" fill="#fff"/><path d="M260 302c0-16.57 13.43-30 30-30h1220c16.57 0 30 13.43 30 30v1068c0 16.57-13.43 30-30 30H290c-16.57 0-30-13.43-30-30z" stroke="#474747" fill-opacity="0"/><path d="M368 274.4v3.54c0 6.42-7.1 13.05-15.76 13.05h-46.48c-8.66 0-15.75-6.64-15.75-13.06v-3.54z" fill="#9d5125"/><path d="M320.03 240c8.03 0 14.82 4.4 18.17 11.67 4.6-3.14 10.92-1.98 14.04 2.65 1.17 1.64 1.7 3.32 1.8 5.3 7.87.68 13.95 8.25 13.95 14.27v1.3c0 6.45-7.1 13-15.76 13h-46.5c-8.64 0-15.74-6.55-15.74-13v-1.3c0-5.02 4.2-11.87 10.06-13.56v-.57c.08-10.95 8.97-19.82 19.97-19.77z" fill="#f58535"/><path d="M308.9 263.13h3.08l3.1 14.58 3.32-14.54h3.1l-4.6 18.2h-3.7zM323.37 263.13h5.77c3.5 0 5.04 2.2 5.04 5.3 0 3.1-1.9 5.4-5.33 5.4h-2.57v7.53h-2.9zm2.9 8.5h2.08c1.56 0 2.9-.83 2.9-3.14 0-1.98-.78-3.17-3.1-3.17h-1.87zM347.8 274.83v.38c0 3.32-1.3 6.52-5.6 6.52-4.6 0-6.04-2.97-6.04-9.47s1.43-9.46 6.05-9.46c5.2 0 5.54 3.8 5.54 5.7v.37h-2.9v-.3c0-1.7-.5-3.64-2.6-3.57-2.08.08-3.1 1.35-3.1 7.22 0 5.87.92 7.3 3.14 7.3 2.42 0 2.7-2.7 2.7-4.42v-.3z" fill="#fff"/><use xlink:href="#a" transform="matrix(1,0,0,1,260,1370) translate(5 11.11111111111111)"/><path d="M220 162c0-16.57 13.43-30 30-30h1300c16.57 0 30 13.43 30 30v1388c0 16.57-13.43 30-30 30H250c-16.57 0-30-13.43-30-30z" stroke="#474747" fill-opacity="0"/><path d="M328 134.4v3.54c0 6.42-7.1 13.05-15.76 13.05h-46.48c-8.66 0-15.75-6.64-15.75-13.06v-3.54z" fill="#9d5125"/><path d="M280.03 100c8.03 0 14.82 4.4 18.17 11.67 4.6-3.14 10.92-1.98 14.04 2.65 1.17 1.64 1.7 3.32 1.8 5.3 7.87.68 13.95 8.25 13.95 14.27v1.3c0 6.45-7.1 13-15.76 13h-46.5c-8.64 0-15.74-6.55-15.74-13v-1.3c0-5.02 4.2-11.87 10.06-13.56v-.57c.08-10.95 8.97-19.82 19.97-19.77z" fill="#f58535"/><path d="M269.54 123.13l-5.2 18.2h3.04l1.17-4.43h5.38l1.1 4.43h3.05l-4.8-18.2zm-.47 11.4l2.22-8.98 2.1 8.97zM291.2 137.34h-.03l-2.47-14.2h-3.1l-2.4 14.13h-.06l-2.4-14.14h-2.95l3.53 18.2h3.38l2.35-13.7h.06l2.36 13.7h3.4l3.64-18.2h-2.9l-2.4 14.2zM305.9 131.4l-1.98-.72c-1.93-.7-2.74-1.53-2.74-3.1-.17-1.26.74-2.43 2-2.6.16-.02.3-.02.45-.02 1.26-.17 2.4.72 2.58 1.96.04.25.03.44 0 .68v.38h2.93v-.4c0-1.9-.5-4.8-5.18-4.8-3.44 0-5.7 1.84-5.7 5.16 0 2.6 1.1 3.97 3.82 5l2 .68c1.6.23 2.73 1.6 2.64 3.2.04 1.45-1.08 2.64-2.5 2.68h-.28c-2 0-3-1.12-3-3.33v-.47h-2.9v.44c0 2.54 1.02 5.53 5.52 5.53 3.7 0 6.07-1.6 6.07-5.48.04-2.5-1.1-3.9-3.7-4.8z" fill="#fff"/><use xlink:href="#b" transform="matrix(1,0,0,1,220,1550) translate(13 11.11111111111111)"/><use xlink:href="#c" transform="matrix(1,0,0,1,220,1550) translate(68.92592592592592 11.11111111111111)"/><path d="M962.5 140.84c0 31.55-26.88 57.15-60 57.15-33.12 0-60-25.6-60-57.16 0-31.55 26.88-57.15 60-57.15 33.12 0 60 25.6 60 57.14z" fill="#9d5025"/><path d="M842.5 136.14h120v4.7h-120v-4.7z" fill="#9d5025"/><path d="M962.5 136.15c0 31.55-26.88 57.15-60 57.15-33.12 0-60-25.6-60-57.15 0-31.55 26.88-57.15 60-57.15 33.12 0 60 25.6 60 57.15z" fill="#f58536"/><path d="M857.26 141.83v-1.5c.45-6.9 4.52-12.7 11.12-15.7.63-12.77 12.02-22.6 25.5-21.95 8.4.38 15.44 4.45 19.7 11.38 6.86-2.75 14.72.27 17.6 6.76.47.94.74 1.7.92 2.64 9.04 1.7 15.54 9.96 15.54 16.88v1.38c0 8.47-9.22 15.9-19.7 15.9h-51.07c-10.4.05-19.6-7.38-19.6-15.8z" fill="#fff"/><path d="M914.78 120.14l-3.83 2.5-1.95-4.02c-2.97-6.28-9.07-10.14-16.34-10.18h-.08c-9.92 0-18.05 7.7-18.05 17.25v3.2l-2.82.77c-4.75 1.82-7.88 5.8-8.27 10.7v1.4c0 4.63 5.94 10 13.52 10h51.12c7.66 0 13.53-5.37 13.53-10v-1.4c0-4.68-5.48-10.8-11.8-11.26l-3.45-.25-.23-3.25c0-1.4-.47-2.5-1.25-3.64-2.27-3.16-6.8-3.94-10.1-1.78z" fill="#f58536"/><use xlink:href="#d" transform="matrix(1,0,0,1,842.5,198) translate(22.376543209876544 17.77777777777778)"/><use xlink:href="#e" transform="matrix(1,0,0,1,842.5,198) translate(18.672839506172842 44.44444444444444)"/><path d="M320 327.5c0-16.57 13.43-30 30-30h340c16.57 0 30 13.43 30 30v1000c0 16.57-13.43 30-30 30H350c-16.57 0-30-13.43-30-30z" fill-opacity="0"/><path d="M335.04 301.6l3.17-1.7 4.72-1.56 4.93-.76 2.15-.08h14.17m14.16 0h28.34m14.16 0h28.34m14.16 0h28.34m14.16 0h28.34m14.16 0h28.34m14.16 0h28.34m14.16 0h28.34m14.16 0H690l5 .42 4.82 1.22 4.54 2 .6.42m10.95 10.98l1.7 3.17 1.56 4.72.76 4.93.08 2.15v15.15m0 15.15v30.3m0 15.16v30.3m0 15.15v30.32m0 15.15v30.3m0 15.15v30.3m0 15.16v30.3m0 15.15v30.3m0 15.15v30.3m0 15.16v30.3m0 15.15v30.3m0 15.15v30.3m0 15.15v30.3m0 15.16v30.3m0 15.15v30.32m0 15.15v30.3m0 15.15v30.3m0 15.16v30.3m0 15.15v30.3m0 15.15v30.3m0 15.16v30.3m0 15.15v30.3m0 15.15v15.15l-.42 5-1.22 4.82-2 4.54-.42.6m-10.98 10.95l-3.17 1.7-4.72 1.56-4.93.76-2.15.08h-14.17m-14.16 0h-28.34m-14.16 0h-28.34m-14.16 0h-28.34m-14.16 0h-28.34m-14.16 0h-28.34m-14.16 0h-28.34m-14.16 0h-28.34m-14.16 0H350l-5-.42-4.82-1.22-4.54-2-.6-.42m-10.95-10.98l-1.7-3.17-1.56-4.72-.76-4.93-.08-2.15v-15.15m0-15.15v-30.3m0-15.16v-30.3m0-15.15v-30.32m0-15.15v-30.3m0-15.15v-30.3m0-15.16v-30.3m0-15.15v-30.3m0-15.15v-30.3m0-15.16v-30.3m0-15.15v-30.3m0-15.15v-30.3m0-15.15v-30.3m0-15.16v-30.3m0-15.15v-30.32m0-15.15v-30.3m0-15.15v-30.3m0-15.16v-30.3m0-15.15v-30.3m0-15.15v-30.3m0-15.16v-30.3m0-15.15v-30.3m0-15.15V327.5l.42-5 1.22-4.82 2-4.54.42-.6" stroke="#f7981f" stroke-width="3" fill="none"/><use xlink:href="#f" transform="matrix(1,0,0,1,320,1327.5) translate(110.27777777777779 11.11111111111111)"/><use xlink:href="#g" transform="matrix(1,0,0,1,320,1327.5) translate(220.64814814814815 11.11111111111111)"/><use xlink:href="#h" transform="matrix(1,0,0,1,320,1327.5) translate(277.37654320987656 11.11111111111111)"/><path d="M1102.4 327.5c0-16.57 13.44-30 30-30H1450c16.57 0 30 13.43 30 30v1000c0 16.57-13.43 30-30 30h-317.6c-16.56 0-30-13.43-30-30z" fill-opacity="0"/><path d="M1117.44 301.6l3.18-1.7 4.7-1.56 4.93-.76 2.16-.08h15.13m15.12 0h30.25m15.12 0h30.25m15.12 0h30.24m15.12 0H1329m15.14 0h30.24m15.13 0h30.25m15.13 0H1450l5 .42 4.82 1.22 4.54 2 .6.42m10.95 10.98l1.7 3.17 1.56 4.72.76 4.93.08 2.15v15.15m0 15.15v30.3m0 15.16v30.3m0 15.15v30.32m0 15.15v30.3m0 15.15v30.3m0 15.16v30.3m0 15.15v30.3m0 15.15v30.3m0 15.16v30.3m0 15.15v30.3m0 15.15v30.3m0 15.15v30.3m0 15.16v30.3m0 15.15v30.32m0 15.15v30.3m0 15.15v30.3m0 15.16v30.3m0 15.15v30.3m0 15.15v30.3m0 15.16v30.3m0 15.15v30.3m0 15.15v15.15l-.42 5-1.22 4.82-2 4.54-.42.6m-10.98 10.95l-3.17 1.7-4.72 1.56-4.93.76-2.15.08h-15.12m-15.13 0h-30.24m-15.12 0h-30.24m-15.13 0h-30.24m-15.12 0h-30.25m-15.13 0h-30.25m-15.12 0h-30.25m-15.12 0h-15.12l-5-.42-4.8-1.22-4.56-2-.6-.42m-10.95-10.98l-1.7-3.17-1.55-4.72-.77-4.93-.07-2.15v-15.15m0-15.15v-30.3m0-15.16v-30.3m0-15.15v-30.32m0-15.15v-30.3m0-15.15v-30.3m0-15.16v-30.3m0-15.15v-30.3m0-15.15v-30.3m0-15.16v-30.3m0-15.15v-30.3m0-15.15v-30.3m0-15.15v-30.3m0-15.16v-30.3m0-15.15v-30.32m0-15.15v-30.3m0-15.15v-30.3m0-15.16v-30.3m0-15.15v-30.3m0-15.15v-30.3m0-15.16v-30.3m0-15.15v-30.3m0-15.15V327.5l.42-5 1.23-4.82 2-4.54.4-.6" stroke="#f7981f" stroke-width="3" fill="none"/><use xlink:href="#f" transform="matrix(1,0,0,1,1102.4054118281617,1327.5) translate(99.27777777777779 11.11111111111111)"/><use xlink:href="#g" transform="matrix(1,0,0,1,1102.4054118281617,1327.5) translate(209.64814814814815 11.11111111111111)"/><use xlink:href="#i" transform="matrix(1,0,0,1,1102.4054118281617,1327.5) translate(266.37654320987656 11.11111111111111)"/><path d="M340 962c0-16.57 13.43-30 30-30h300c16.57 0 30 13.43 30 30v288c0 16.57-13.43 30-30 30H370c-16.57 0-30-13.43-30-30z" stroke="#474747" fill-opacity="0"/><path d="M401.97 920.24v-5.9c0-7.25-5.88-13.13-13.12-13.13-7.24 0-13.12 5.9-13.12 13.14v5.9h6.64v-5.9c0-3.58 2.9-6.5 6.48-6.5 3.57 0 6.48 2.92 6.48 6.5v5.9h6.64z" fill="#876a22"/><path d="M401.98 920.26h5.42v20.83H370v-20.84h5.72v-7.1c0-7.28 5.87-13.16 13.13-13.16 7.26 0 13.13 5.88 13.13 13.15v7.1zm-6.66 0v-7.1c0-3.6-2.88-6.5-6.47-6.5-3.6 0-6.47 2.9-6.47 6.5v7.1h12.94z" fill="#daa835"/><path d="M370 941.1h37.4v.9H370z" fill="#876a22"/><use xlink:href="#j" transform="matrix(1,0,0,1,340,1250) translate(99.81481481481482 -15.55555555555555)"/><use xlink:href="#k" transform="matrix(1,0,0,1,340,1250) translate(175 -15.55555555555555)"/><use xlink:href="#l" transform="matrix(1,0,0,1,340,1250) translate(247.8395061728395 -15.55555555555555)"/><use xlink:href="#m" transform="matrix(1,0,0,1,340,1250) translate(124.44444444444444 11.111111111111118)"/><path d="M1120 962c0-16.57 13.43-30 30-30h281.4c16.57 0 30 13.43 30 30v288c0 16.57-13.43 30-30 30H1150c-16.57 0-30-13.43-30-30z" stroke="#474747" fill-opacity="0"/><path d="M1181.97 920.24v-5.9c0-7.25-5.88-13.13-13.12-13.13-7.24 0-13.12 5.9-13.12 13.14v5.9h6.64v-5.9c0-3.58 2.9-6.5 6.48-6.5 3.57 0 6.48 2.92 6.48 6.5v5.9h6.64z" fill="#876a22"/><path d="M1181.98 920.26h5.42v20.83H1150v-20.84h5.72v-7.1c0-7.28 5.87-13.16 13.13-13.16 7.26 0 13.13 5.88 13.13 13.15v7.1zm-6.66 0v-7.1c0-3.6-2.88-6.5-6.47-6.5-3.6 0-6.47 2.9-6.47 6.5v7.1h12.94z" fill="#daa835"/><path d="M1150 941.1h37.4v.9H1150z" fill="#876a22"/><use xlink:href="#j" transform="matrix(1,0,0,1,1120,1250) translate(90.81481481481482 -15.55555555555555)"/><use xlink:href="#k" transform="matrix(1,0,0,1,1120,1250) translate(166 -15.55555555555555)"/><use xlink:href="#n" transform="matrix(1,0,0,1,1120,1250) translate(238.8395061728395 -15.55555555555555)"/><use xlink:href="#o" transform="matrix(1,0,0,1,1120,1250) translate(115.44444444444444 11.111111111111118)"/><path d="M340 379.5c0-23.2 18.8-42 42-42h276c23.2 0 42 18.8 42 42v256c0 23.2-18.8 42-42 42H382c-23.2 0-42-18.8-42-42z" stroke="#5e5e5e" stroke-width="3" fill="#fff"/><use xlink:href="#p" transform="matrix(1,0,0,1,353,350.5) translate(89.28395061728396 17.77777777777778)"/><use xlink:href="#q" transform="matrix(1,0,0,1,353,350.5) translate(155.82716049382717 17.77777777777778)"/><use xlink:href="#r" transform="matrix(1,0,0,1,353,350.5) translate(232.37037037037038 17.77777777777778)"/><use xlink:href="#s" transform="matrix(1,0,0,1,353,350.5) translate(111.44444444444444 44.44444444444444)"/><path d="M1120 379.5c0-23.2 18.8-42 42-42h257.4c23.2 0 42 18.8 42 42v256c0 23.2-18.8 42-42 42H1162c-23.2 0-42-18.8-42-42z" stroke="#5e5e5e" stroke-width="3" fill="#fff"/><use xlink:href="#p" transform="matrix(1,0,0,1,1133,350.5) translate(80.28395061728396 17.77777777777778)"/><use xlink:href="#q" transform="matrix(1,0,0,1,1133,350.5) translate(146.82716049382717 17.77777777777778)"/><use xlink:href="#t" transform="matrix(1,0,0,1,1133,350.5) translate(223.37037037037038 17.77777777777778)"/><use xlink:href="#u" transform="matrix(1,0,0,1,1133,350.5) translate(102.44444444444444 44.44444444444444)"/><path d="M482.3 541.57c0 21.2-18.44 38.42-41.15 38.42-22.7 0-41.15-17.22-41.15-38.43 0-21.2 18.44-38.42 41.15-38.42 22.7 0 41.15 17.2 41.15 38.42z" fill="#9d5025"/><path d="M482.3 538.42c0 21.2-18.44 38.42-41.15 38.42-22.7 0-41.15-17.2-41.15-38.42 0-21.2 18.44-38.42 41.15-38.42 22.7 0 41.15 17.2 41.15 38.42z" fill="#f58536"/><path d="M452.3 520.58h4.32v35.66h-4.33v-35.66zM464.5 529.6l11.35 8.64-11.36 9V529.6z" fill="#fff"/><path d="M424.32 536.4l2.5 1.87-2.76 2.17h42.34v-4.04h-42.08zM424.06 522.6h32.56v-4.04h-32.3l2.48 1.88-2.74 2.17zM426.8 556.1l-2.74 2.17h32.56v-4.05h-32.3l2.48 1.88zM415.02 531.36l9.1 6.9-9.1 7.2v-14.1zM415.02 513.53l9.1 6.9-9.1 7.2v-14.1zM415.02 549.2l9.1 6.9-9.1 7.2v-14.1z" fill="#fff"/><use xlink:href="#v" transform="matrix(1,0,0,1,400,580) translate(20.38888888888889 17.77777777777778)"/><use xlink:href="#e" transform="matrix(1,0,0,1,400,580) translate(0.17283950617284205 44.44444444444444)"/><path d="M1417.06 541.57c0 21.2-17.26 38.42-38.53 38.42S1340 562.77 1340 541.56c0-21.2 17.26-38.42 38.53-38.42s38.53 17.2 38.53 38.42z" fill="#9d5025"/><path d="M1417.06 538.42c0 21.2-17.26 38.42-38.53 38.42s-38.53-17.2-38.53-38.42c0-21.2 17.26-38.42 38.53-38.42s38.53 17.2 38.53 38.42z" fill="#f58536"/><path d="M1388.96 520.58h4.06v35.66h-4.06v-35.66zM1400.38 529.6l10.64 8.64-10.64 9V529.6z" fill="#fff"/><path d="M1362.77 536.4l2.34 1.87-2.57 2.17h39.64v-4.04h-39.4zM1362.53 522.6h30.5v-4.04h-30.25l2.3 1.88-2.55 2.17zM1365.1 556.1l-2.57 2.17h30.5v-4.05h-30.25l2.3 1.88zM1354.06 531.36l8.5 6.9-8.5 7.2v-14.1zM1354.06 513.53l8.5 6.9-8.5 7.2v-14.1zM1354.06 549.2l8.5 6.9-8.5 7.2v-14.1z" fill="#fff"/><use xlink:href="#v" transform="matrix(1,0,0,1,1340,580) translate(17.88888888888889 17.77777777777778)"/><use xlink:href="#e" transform="matrix(1,0,0,1,1340,580) translate(-2.327160493827158 44.44444444444444)"/><path d="M1230 1463.62l30 5.74v3.4c0 5.02-13.45 9.1-30 9.1-16.56 0-30-4.08-30-9.1v-3.7z" fill="#8c3123"/><path d="M1230 1488.1c12.52 0 23.25-2.37 27.72-5.68l1.5-3.2.6-2.92v3.63l-9.85 54c0 3.4-8.94 6.06-19.96 6.06-11.02 0-19.96-2.68-19.96-6.06l-9.83-54v-3.57l2.27 6.18c4.53 3.24 15.14 5.54 27.54 5.54z" fill="#8c3123"/><path d="M1230 1460c16.56 0 30 4.08 30 9.08s-13.44 9.05-30 9.05c-16.56 0-30-4-30-9.05 0-5.04 13.44-9.08 30-9.08z" fill="#e05243"/><path d="M1230 1484.4c15.44 0 28.13-3.47 29.8-8.04l-9.83 54c0 3.37-8.95 6.07-19.97 6.07-11.03 0-19.97-2.7-19.97-6.07l-9.84-54c1.66 4.57 14.36 8.05 29.8 8.05z" fill="#e05243"/><use xlink:href="#w" transform="matrix(1,0,0,1,1200,1540.0000000000002) translate(-2.716049382716051 17.77777777777778)"/><path d="M1100.5 1496.9c-.33-.43-.57-.85-.8-1.27-1.37-2.66-2.1-5.1-2.57-8.05-2-9.73-7.28-17.22-15.6-22.26-5.84-3.64-11.76-6.02-18.72-5.1-9.27 1.18-17.1 4.75-22.55 13-3.12 4.9-5.28 9.4-7.12 15-1.68 4.82-1.52 10.07-3.6 14.76-.48.98-.96 1.75-1.52 2.66-1.43 2.3-3.35 4.4-4.4 6.86-2.55 6.1-1.1 9.6 4.57 12.6.64.28 1.2.56 1.84.84 6.65 2.73 22.25 6.16 31.85 2.38 2.4-.77 4.32-1.6 6.48-2.87 7.68-4.2 15.36-8.54 23.04-12.8 3.6-1.9 6.48-4.07 9.2-7.22 2.48-2.94 2.4-5.67-.08-8.54z" fill="#4b612c"/><path d="M1073.37 1463.6c4.27 1.58 7.7 3.6 11.18 6.76 2.42 1.96 8.96 8.92 10.46 17.57.15 1.3.3 2.62.5 3.87.22.6.5 1.05.86 1.5l.8 2.04s1.4 2.36 2.2 3.47c1 1.46 1.34 2.9.28 4.34-2.5 3.28-5.7 5.58-9.6 7.67l.34-4.25-2.56-.8c-1 2.3-.36 4 2.06 5.26-2.27 1.26-4.34 2.37-6.33 3.42-6.2 3.4-12.32 6.88-18.5 10.23-4.78 2.56-9.4 3.6-14.74 3.47-6.2-.26-11.45-1.3-17.3-3.4-2.48-1-4.55-5.05-3.76-7.6.35-1.26 1.63-2.04 2.84-1.78 4.35.46 8.7.98 13.03 1.5 4.78.6 9.62 1.7 14.4 1.7 5.47 0 10.67-1.7 15.8-3.86-1.57.13-3.14.2-4.64.33-4.34.34-8.6.47-12.88 1.06-5.34.72-10.32-.46-15.38-1.77-4.12-.93-7.4-3.22-9.75-6.83-.92-1.44-1.5-3.02-.78-4.52.57.52 1.2 1.5 1.64 1.44.5-.08 1.36-.93 1.64-1.65.64-1.77 1.07-3.6 1.57-5.44.8-3.47 1.65-6.42 2.8-9.83 2.2-5.77 4.6-11.54 8.4-16.52 1.4-1.97 2.76-3.54 4.6-5.18 2.22-2.03 5.14-2.7 8.06-3.02 3.34-.33 6.76-.13 10.25-.2.15 0 .36.2.58.27z" fill="#759c3e"/><path d="M1095.02 1487.94c-.7-1.6-1.38-2.92-2.26-4.44-.8-1.14-1.64-2-2.77-2.8-5.03-3.58-11.92-2.28-15.4 2.86-2.85 4.1-4.15 8.77-4.9 13.62-.24 1.47-.4 2.93-.66 4.8-1.5-2.64-2.17-5.24-2.2-8.3-.28-5.86.53-11.55 4.12-16.44 2.54-3.5 5.56-6.35 10-6.98 1.24-.06 2.3-.03 3.56.13 1.35 1.2 2.96 2.18 4 3.6 2.94 3.72 4.84 7.4 6.22 11.98.14.66.22 1.27.28 1.96z" fill="#b7ca9d"/><path d="M1073.35 1463.6c-4.92 1.4-7.78 5.16-10.12 9.47-3.37 6.2-5.83 12.73-5.7 19.92.03 4.35.8 8.02 2.5 11.98.2.4.3.83.54 1.5-1.8.07-3.38-.76-4.37-2.32-1.87-2.8-2.68-5.72-2.52-9.12.2-9.28 1.95-18.22 7.88-25.72 1.35-1.65 2.6-3 4.23-4.44 1.58-1.5 3.45-2.14 5.58-2z" fill="#b7ca9d"/><path d="M1097.13 1495.35c0 2.3-1.54 3.5-3 4.74-7.52 6.15-16.27 9.4-25.56 11.16-4.13.78-8.32 1.5-12.5 2-5.05.63-9.8-1.2-14.6-2.48-1.96-.52-3.87-1.16-5.9-1.76 0-.23 0-.43.06-.65.92-.08 1.72-.08 2.64 0 3.88.7 7.7 1.7 11.58 2.1 3.75.4 7.02.4 10.77 0 7.02-.73 12.93-2.14 19.58-4.7 3.88-1.6 7.02-3.17 10.6-5.3 2.7-1.57 5.23-3.53 5.53-7.14zM1087.83 1505.78c1.86-1.14 3.68-2.38 5.6-3.4.88-.28 1.67-.4 2.6-.35l.18.47-5.82 4.04z" fill="#b7ca9d"/><use xlink:href="#x" transform="matrix(1,0,0,1,1022.4054118281617,1530) translate(21.543209876543212 17.77777777777778)"/><path d="M1103.27 1500.7h82.22" stroke="#5e5e5e" stroke-width="2" fill="none"/><path d="M1103.3 1501.7h-1l.08-.3-.28-1.7h1.2z" fill="#5e5e5e"/><path d="M1200.75 1500.7l-14.26 4.63v-9.27z" stroke="#5e5e5e" stroke-width="2" fill="#5e5e5e"/><path d="M940 868.3c0 22.54-17.92 40.82-40 40.82s-40-18.28-40-40.82c0-22.53 17.92-40.82 40-40.82s40 18.3 40 40.82z" fill="#9d5025"/><path d="M940 864.95c0 22.54-17.92 40.83-40 40.83s-40-18.3-40-40.83c0-22.53 17.92-40.82 40-40.82s40 18.3 40 40.82z" fill="#f58536"/><path d="M866.37 853.04h14.52v23.83h-14.53v-23.83zM912.78 836.76h12.96V850h-12.96v-13.24zM912.78 858.34h12.96v13.22h-12.96v-13.22zM912.78 879.93h12.96v13.22h-12.96v-13.22z" fill="#fff"/><path d="M909.2 866.68l2.16-1.05 1.42-.72-1.42-.7-1.9-.98-5.8-2.9v2.9H886.3l19.74-12.9 1.56 2.48 3.27-5.65.96-1.65.95-1.65-1.84.2-2.1.27-6.17.76 1.5 2.32-24.2 15.82-2.67 1.73 3.2 2.07 23.66 15.5-1.5 2.3 6.18.77 2.1.24 1.84.22-.95-1.65-.96-1.64-3.27-5.65-1.56 2.5-19.73-12.92h17.36v2.83l5.54-2.82z" fill="#fff"/><use xlink:href="#y" transform="matrix(1,0,0,1,860,909.1333333333217) translate(12.222222222222221 17.77777777777778)"/><use xlink:href="#z" transform="matrix(1,0,0,1,860,909.1333333333217) translate(18.39506172839506 17.77777777777778)"/><use xlink:href="#A" transform="matrix(1,0,0,1,860,909.1333333333217) translate(-3.7654320987654373 44.44444444444444)"/><path d="M608.96-45.56c7.54 0 12.82 4.9 12.82 11.85v15.1h-6.63v-10.25h-1.82v10.26h-10.2c-.68-7.66-6.7-12.87-15.16-12.87h-5.87v-4.18c6.47-.6 11.66-3.16 12.22-9.94h.6zM566.82-45.57h.63c.6 6.78 5.75 9.34 12.22 9.94v4.16h-5.75c-8.45 0-14.52 5.24-15.16 12.88h-10v-10.25h-1.82v10.26H540v-15.14c0-7 5.28-11.86 12.85-11.86z" fill="#7d7c7c"/><path d="M587.9-25.1c7.55 0 12.83 4.9 12.83 11.86V1.9h-6.67V-8.37h-1.78V1.9h-22.54V-8.4H568V1.9h-6.96v-15.14c0-6.97 5.28-11.86 12.82-11.86zM559.8-75.1l11.13 8.12v3.52c.07 6.4-4.9 11.62-11.1 11.7h-.02c-6.1 0-11.1-5.24-11.1-12.2v-3.1zM601.93-75.1l11.12 8.12v3.52c.07 6.4-4.9 11.62-11.1 11.7h-.02c-6.1 0-11.12-5.24-11.12-12.2v-3.1zM580.9-59.14l9.8 7.15v3.16c.1 5.65-4.27 10.3-9.77 10.42h-.04c-5.57-.15-9.97-4.87-9.84-10.6 0-.07 0-.13.02-.2v-2.83z" fill="#7d7c7c"/><path d="M601.94-78.64c6.26-.12 11.43 5.02 11.54 11.45.1 6.45-4.87 11.77-11.13 11.88-6.25.12-11.42-5-11.53-11.45V-67c-.05-6.37 4.9-11.6 11.12-11.64zM580.87-62.74c5.54-.13 10.15 4.38 10.3 10.1.1 5.7-4.27 10.44-9.82 10.58-5.55.13-10.15-4.38-10.3-10.1v-.24c-.06-5.65 4.33-10.26 9.82-10.34zM608.96-49.16c7.54 0 12.82 4.9 12.82 11.86v15.17h-6.63V-32.4h-1.82v10.27h-10.2c-.68-7.68-6.7-12.87-15.16-12.87h-5.87v-1.32c6.62-.68 11.66-5.98 12.22-12.8h.6zM566.82-49.15h.63c.56 6.83 5.6 12.12 12.22 12.8v1.3h-5.75c-8.45 0-14.52 5.24-15.16 12.88h-10V-32.4h-1.82v10.26H540V-37.3c0-7 5.28-11.85 12.85-11.85z" fill="#d2d3d3"/><path d="M587.9-28.64c7.55 0 12.83 4.9 12.83 11.85v15.17h-6.67V-11.9h-1.78v10.27h-22.54V-11.9H568v10.27h-6.96V-16.8c0-6.95 5.28-11.84 12.82-11.84zM559.8-78.64c6.27-.12 11.44 5.02 11.55 11.45.1 6.45-4.87 11.77-11.13 11.88-6.25.12-11.42-5-11.53-11.45V-67c-.06-6.37 4.9-11.57 11.1-11.64z" fill="#d2d3d3"/><use xlink:href="#B" transform="matrix(1,0,0,1,540,1.9208006909226185) translate(13.870370370370374 17.77777777777778)"/><path d="M584 414.9l-4 1.65v46.9l4 1.65 16.25-23.9L584 414.9z" fill="#9d5025"/><path d="M593.35 463.3l-9.34 1.8v-50.2l9.35 1.75v46.64z" fill="#f58536"/><path d="M588.43 413.05l4.93-2.03 23.4 31.06-23.4 26.88-4.93-2.03v-53.88z" fill="#9d5025"/><path d="M605.02 466.24l-11.66 2.72v-57.94l11.66 2.73v52.5z" fill="#f58536"/><path d="M598.85 408.75l6.2-2.57 34.5 39.3-34.5 28.32-6.2-2.57v-62.48z" fill="#9d5025"/><path d="M619.98 469.27l-14.96 4.53v-67.62l14.96 4.53v58.57z" fill="#f58536"/><path d="M612 403.28l8-3.28 37.34 42.24L620 480l-8-3.28v-73.44z" fill="#9d5025"/><path d="M660 463.44L619.97 480v-80l40 16.56v46.88z" fill="#f58536"/><use xlink:href="#C" transform="matrix(1,0,0,1,580,480) translate(-6.265432098765437 17.77777777777778)"/><path d="M677.7 781.57c0 21.2-17.4 38.42-38.85 38.42-21.45 0-38.85-17.22-38.85-38.43 0-21.2 17.4-38.42 38.85-38.42 21.45 0 38.85 17.2 38.85 38.42z" fill="#9d5025"/><path d="M677.7 778.42c0 21.2-17.4 38.42-38.85 38.42-21.45 0-38.85-17.2-38.85-38.42 0-21.2 17.4-38.42 38.85-38.42 21.45 0 38.85 17.2 38.85 38.42z" fill="#f58536"/><path d="M635.66 755.53h6.38v46.03h-6.38v-46.03z" fill="#fff"/><path d="M630.9 757.82l7.95-13.62 7.95 13.62h-15.9zM630.9 799.26l7.95 13.62 7.95-13.62h-15.9zM656.88 775.26h16.45v6.32h-16.45v-6.32z" fill="#fff"/><path d="M659.2 786.28l-13.78-7.86 13.77-7.87v15.73zM604.35 775.26h16.45v6.32h-16.45v-6.32z" fill="#fff"/><path d="M618.5 786.28l13.76-7.86-13.77-7.87v15.73z" fill="#fff"/><use xlink:href="#D" transform="matrix(1,0,0,1,600,820) translate(20.098765432098766 17.77777777777778)"/><path d="M516.54 1031.5V796c0-3.3 2.68-6 6-6h59.98" stroke="#5e5e5e" stroke-width="2" fill="none"/><path d="M517.54 1032.92l-1-.42h-.02l-.98.4v-1.42h2z" fill="#5e5e5e"/><path d="M597.78 790l-14.26 4.64v-9.28z" stroke="#5e5e5e" stroke-width="2" fill="#5e5e5e"/><path d="M482.3 550H514c3.3 0 6 2.7 6 6v204.97c0 3.3 2.7 6 6 6h74.84" stroke="#5e5e5e" stroke-width="2" fill="none"/><path d="M482.32 551h-1.3l.22-.74.23-1.26h.85zM601.5 767.97h-.7v-2h1.37z" fill="#5e5e5e"/><path d="M90.77 402.15l7 .15 7.4.46 6.88.72 6.46.96 6.12 1.16 5.83 1.37 5.6 1.56 5.43 1.76 5.3 1.97 5.26 2.2 5.23 2.47 5.28 2.76 5.43 3.13 5.67 3.6 6.12 4.26 6.9 5.25 8.66 7.18 46.26 41.4 6.9 5.24 6.12 4.26 5.67 3.6 5.42 3.13 5.28 2.77 5.23 2.46 5.25 2.2 5.3 1.97 5.44 1.77 5.6 1.56 5.83 1.37 6.1 1.16 6.46.95 6.9.72 7.4.47 7 .14" stroke="#5e5e5e" stroke-width="2" fill="none"/><path d="M90.82 401.15l-.04 2-1-.02v-2zM338.5 517.33v2h-1.03v-2z" fill="#5e5e5e"/><path d="M132.5 983.5l4.22.07 4.9.3 4.65.5 4.42.65 4.22.8 4.07.96 3.94 1.1 3.85 1.26 3.77 1.4 3.74 1.57 3.72 1.76 3.72 1.94 3.75 2.17 3.82 2.43 3.95 2.75 4.13 3.14 4.4 3.63 4.82 4.35 5.53 5.4 6.95 7.44 14.4 16.88 18.4 21.7 6.95 7.42 5.53 5.42 4.82 4.35 4.4 3.63 4.13 3.14 3.95 2.74 3.83 2.44 3.76 2.17 3.72 1.96 3.7 1.75 3.75 1.58 3.78 1.4 3.86 1.25 3.95 1.1 4.08.96 4.23.8 4.43.65 4.64.5 4.9.3 4.23.08" stroke="#5e5e5e" stroke-width="2" fill="none"/><path d="M132.55 982.5l-.04 2-1-.03v-2zM339.5 1108.35v2h-1.03v-2zM784.6 754.17l-.92 3.4-2.53 2.54-3.42.94H673.9v-2h103.57l2.64-.72 1.8-1.77.7-2.65v-188h2zm0-209.6h-2V167h2z" fill="#5e5e5e"/><path d="M673.92 761.04h-.5l-1.04-2h1.54zM788.24 166h-9.28l4.64-14.26z" fill="#5e5e5e"/><path d="M789.6 167h-12l6-18.5zm-9.26-2h6.52l-3.26-10.03z" fill="#5e5e5e"/><use xlink:href="#E" transform="matrix(1,0,0,1,783.6000000000001,498.9542116264312) translate(0.01 14.222222222222223)"/><use xlink:href="#F" transform="matrix(1,0,0,1,741.3037037037038,544.5726484091516) translate(0.010000000000005116 14.222222222222223)"/><path d="M892.93 78.73V-26.5c0-3.3-2.7-6-6-6H845.5" stroke="#5e5e5e" stroke-width="2" fill="none"/><path d="M893.93 79.62l-1.15.13-.85.17V78.7h2z" fill="#5e5e5e"/><path d="M830.24-32.5l14.27-4.64v9.28z" stroke="#5e5e5e" stroke-width="2" fill="#5e5e5e"/><path d="M901 805.63h-2V521.68h2zm0-305.3h-2V198.9h2z" fill="#5e5e5e"/><path d="M901 197.93v.98h-2v-1.06zM900 820.9l-4.64-14.27h9.28z" fill="#5e5e5e"/><path d="M900 824.13l-6-18.5h12zm-3.26-16.5l3.26 10.03 3.26-10.03z" fill="#5e5e5e"/><use xlink:href="#G" transform="matrix(1,0,0,1,836.0246913580247,500.34207250623507) translate(0.010000000000005116 14.222222222222223)"/><use xlink:href="#H" transform="matrix(1,0,0,1,836.0246913580247,500.34207250623507) translate(74.77543209876545 14.222222222222223)"/><path d="M1220 781.57c0 21.2-17.4 38.42-38.85 38.42-21.45 0-38.85-17.22-38.85-38.43 0-21.2 17.4-38.42 38.85-38.42 21.45 0 38.85 17.2 38.85 38.42z" fill="#9d5025"/><path d="M1220 778.42c0 21.2-17.4 38.42-38.85 38.42-21.45 0-38.85-17.2-38.85-38.42 0-21.2 17.4-38.42 38.85-38.42 21.45 0 38.85 17.2 38.85 38.42z" fill="#f58536"/><path d="M1177.96 755.53h6.38v46.03h-6.38v-46.03z" fill="#fff"/><path d="M1173.2 757.82l7.95-13.62 7.95 13.62h-15.9zM1173.2 799.26l7.95 13.62 7.95-13.62h-15.9zM1199.18 775.26h16.45v6.32h-16.45v-6.32z" fill="#fff"/><path d="M1201.5 786.28l-13.78-7.86 13.77-7.87v15.73zM1146.65 775.26h16.45v6.32h-16.45v-6.32z" fill="#fff"/><path d="M1160.8 786.28l13.76-7.86-13.77-7.87v15.73z" fill="#fff"/><use xlink:href="#D" transform="matrix(1,0,0,1,1142.3000000000002,820) translate(20.098765432098766 17.77777777777778)"/><path d="M1340 550h-34c-3.3 0-6 2.7-6 6v195.4c0 3.32-2.7 6-6 6h-79.4" stroke="#5e5e5e" stroke-width="2" fill="none"/><path d="M1341.22 551h-1.24v-2h.82zM1214.62 758.4h-.34l-1.38-2h1.72z" fill="#5e5e5e"/><path d="M1299.8 994V811.78c0-3.32-2.7-6-6-6h-64.07" stroke="#5e5e5e" stroke-width="2" fill="none"/><path d="M1300.8 995.42l-1.02-.42-1 .4V994h2z" fill="#5e5e5e"/><path d="M1214.46 805.77l14.27-4.64v9.27z" stroke="#5e5e5e" stroke-width="2" fill="#5e5e5e"/><path d="M1053.63 756.54l.7 2.64 1.8 1.78 2.63.7h86.02v2h-86.28l-3.42-.9-2.53-2.54-.92-3.4V571.3h2zm0-206.54h-2V167h2z" fill="#5e5e5e"/><path d="M1145.3 763.67h-.54v-2h1.5zM1057.26 166H1048l4.63-14.26z" fill="#5e5e5e"/><path d="M1058.64 167h-12.02l6-18.5zm-9.27-2h6.52l-3.27-10.03z" fill="#5e5e5e"/><use xlink:href="#F" transform="matrix(1,0,0,1,1010.332162153883,549.9956861007639) translate(0.010000000000005116 14.222222222222223)"/><path d="M1677.5 986.15l-5.8.12-6.3.4-5.86.6-5.5.83-5.24 1-4.98 1.16-4.8 1.34-4.65 1.5-4.56 1.7-4.48 1.9-4.48 2.1-4.5 2.36-4.63 2.67-4.8 3.06-5.15 3.57-5.72 4.35-6.88 5.7-10.6 9.6-27.3 25.5-6.88 5.7-5.72 4.35-5.15 3.57-4.8 3.06-4.63 2.67-4.52 2.36-4.48 2.1-4.5 1.9-4.54 1.7-4.65 1.5-4.8 1.34-5 1.17-5.2 1-5.52.8-5.86.62-6.3.4-5.8.12" stroke="#5e5e5e" stroke-width="2" fill="none"/><path d="M1678.5 987.13l-1 .02-.05-2 1.05-.02zM1462.92 1091h-1.02v-2h1.02z" fill="#5e5e5e"/><path d="M1697.5 427.32l-9.26.2-9.2.57-8.35.86-7.7 1.14-7.16 1.36-6.77 1.6-6.46 1.8-6.27 2.03-6.18 2.3-6.22 2.6-6.44 3.04-6.95 3.63-8.08 4.67-11.98 7.65-31.57 20.86-8.08 4.67-6.94 3.63-6.43 3.03-6.22 2.6-6.2 2.3-6.26 2.05-6.48 1.8-6.76 1.6-7.17 1.35-7.7 1.14-8.35.87-9.2.6-9.25.18" stroke="#5e5e5e" stroke-width="2" fill="none"/><path d="M1698.5 428.3l-1 .02-.05-2 1.05-.02zM1463.92 508.5h-1.02v-2h1.02z" fill="#5e5e5e"/><path d="M416.8 666c0-3.3 2.7-6 6-6h194.4c3.3 0 6 2.7 6 6v26.4c0 3.3-2.7 6-6 6H422.8c-3.3 0-6-2.7-6-6z" stroke="#5e5e5e" stroke-width="3" fill="#f58536"/><use xlink:href="#I" transform="matrix(1,0,0,1,421.80129408591904,665) translate(52.265432098765444 19.59027777777778)"/><use xlink:href="#J" transform="matrix(1,0,0,1,421.80129408591904,665) translate(123.74691358024691 19.59027777777778)"/><path d="M1200 666c0-3.3 2.7-6 6-6h194.4c3.3 0 6 2.7 6 6v26.4c0 3.3-2.7 6-6 6H1206c-3.3 0-6-2.7-6-6z" stroke="#5e5e5e" stroke-width="3" fill="#f58536"/><use xlink:href="#I" transform="matrix(1,0,0,1,1205,665) translate(52.265432098765444 19.59027777777778)"/><use xlink:href="#J" transform="matrix(1,0,0,1,1205,665) translate(123.74691358024691 19.59027777777778)"/><path d="M952.96 1401.57c0 21.2-17.92 38.42-40 38.42s-40-17.22-40-38.43c0-21.2 17.92-38.42 40-38.42s40 17.2 40 38.42z" fill="#9d5025"/><path d="M952.96 1398.42c0 21.2-17.92 38.42-40 38.42s-40-17.2-40-38.42c0-21.2 17.92-38.42 40-38.42s40 17.2 40 38.42z" fill="#f58536"/><path d="M912.98 1426.96l-.64-.23c-5-2-8.8-4.68-12.2-8.68-3.8-4.16-6.26-8.33-8.24-13.53-2.66-7.47-3.75-14.15-3.65-22.03v-1.84h1.92c1.68 0 4.9-.57 6.12-1.77 1.28-1.5 2.02-3.1 2.22-5.03l.05-1.14 1.18-.46c4.44-1.54 8.44-2.28 13.23-2.4 4.74.17 8.74.92 13.18 2.4l1.18.46.1 1.14c.2 1.94.9 3.48 2.12 4.96 1.2 1.15 4.7 1.66 6.17 1.72l1.88.05v1.77c.16 7.94-.98 14.62-3.6 22.1-1.92 5.25-4.44 9.36-8.2 13.58-3.4 4-7.2 6.68-12.18 8.68zm-20.78-42.76c.3 12.96 3.95 23.75 10.7 31.3 2.87 3.3 5.98 5.64 10.08 7.52 4.05-1.88 7.16-4.22 10.02-7.53 6.76-7.6 10.4-18.4 10.7-31.4-2-.3-5.12-.93-6.85-2.58-1.68-1.77-2.67-3.7-3.06-6.05-3.7-1.2-6.97-1.77-10.82-1.9-3.9.13-7.16.64-10.86 1.84-.4 2.4-1.33 4.3-3 6.12-2.08 1.6-4.26 2.45-6.92 2.68z" fill="#fff"/><path d="M924.87 1396.64c-2.38 2.27-9.58 7.13-12.32 9.77v-7.56H880.7v-4.54h31.76v-7.46c2.65 2.5 9.85 7.34 12.4 9.8z" fill="#fff"/><use xlink:href="#K" transform="matrix(1,0,0,1,872.961147042944,1440) translate(17.19135802469136 17.77777777777778)"/><use xlink:href="#L" transform="matrix(1,0,0,1,872.961147042944,1440) translate(-3.7962962962962976 44.44444444444444)"/><path d="M670.4 805.23H774c3.3 0 6 2.68 6 6v565.98c0 3.32 2.7 6 6 6h71.8" stroke="#5e5e5e" stroke-width="2" fill="none"/><path d="M670.42 806.23h-1.9l1.55-1.8.14-.2h.22z" fill="#5e5e5e"/><path d="M873.06 1383.2l-14.26 4.64v-9.27z" stroke="#5e5e5e" stroke-width="2" fill="#5e5e5e"/><path d="M1151.14 807H1056c-3.3 0-6 2.68-6 6v561.45c0 3.3-2.7 6-6 6h-77.26" stroke="#5e5e5e" stroke-width="2" fill="none"/><path d="M1153.04 808h-1.93v-2h.14z" fill="#5e5e5e"/><path d="M951.47 1380.45l14.27-4.64v9.28z" stroke="#5e5e5e" stroke-width="2" fill="#5e5e5e"/><path d="M912.96 1441v58c0 3.3 2.7 6 6 6h90.93" stroke="#5e5e5e" stroke-width="2" fill="none"/><path d="M912.96 1440l1-.04v1.06h-2v-1.1z" fill="#5e5e5e"/><path d="M1025.16 1505l-14.27 4.64v-9.28z" stroke="#5e5e5e" stroke-width="2" fill="#5e5e5e"/><path d="M442.65 498.5h-3V494h3zm0-10.47h-3v-8.97h3zm0-14.96h-3v-8.97h3zm0-14.95h-3v-8.98h3zm0-14.96h-3v-8.97h3zm0-14.96h-3v-8.97h3zm0-14.95h-3v-8.98h3zm0-14.96h-3v-8.98h3zm0-14.97h-3v-8.97h3zm0-14.95h-3v-8.98h3zm0-14.96h-3v-8.97h3zm0-14.95h-3v-8.98h3zm0-14.96h-3v-8.97h3zm0-14.95h-3v-8.97h3zm0-14.95h-3v-8.98h3zm0-14.96h-3v-8.97h3zm0-14.96h-3v-8.97h3zm0-14.95h-3v-8.98h3zm0-14.96h-3v-8.97h3zm0-14.96h-3v-7.33h3zm0-29.9h-3v-8.97h3zm0-14.96h-3v-8.97h3zm9-23.94h-4.3l-2.45.66-1.6 1.6-.65 2.44v4.3h-3v-4.7l.98-3.6 2.7-2.72 3.62-.98h4.7zm15.02 0h-9v-3h9zm15 0h-9v-3h9zm15.02 0h-9.02v-3h9zm15 0h-9v-3h9zm15 0h-9v-3h9zm15.02 0h-9v-3h9zm15.02 0h-9v-3h9zm15 0h-9v-3h9zm15.02 0h-9v-3h9zm15 0h-9v-3h9zm15.02 0h-9v-3h9zm15 0h-9v-3h9zm15.03 0h-9v-3h9zm15.02 0h-9v-3h9zm15 0h-9v-3h9zm15.02 0h-9v-3h9zm15 0h-9v-3h9zm15.02 0h-9v-3h9zm15.02 0h-9v-3h9zm15 0h-9v-3h9zm15.02 0h-9v-3h9zm15 0h-9v-3h9zm15.02 0h-9v-3h9zm15 0h-9v-3h9zm10.52 0h-4.5v-3h4.5z" fill="#999"/><path d="M442.65 500.1l-1.5-.1-1.5.08v-1.62h3zM838.2 148.5l-14.26 4.64v-9.28z" fill="#999"/><path d="M843.06 148.5l-20.62 6.7v-13.4zm-17.62 2.57l7.9-2.57-7.9-2.57z" fill="#999"/><use xlink:href="#F" transform="matrix(1,0,0,1,398.8537037037037,190.13333333333352) translate(0.010000000000005116 14.222222222222223)"/><path d="M1380.03 498.5h-3V494h3zm0-10.47h-3v-8.97h3zm0-14.96h-3v-8.97h3zm0-14.95h-3v-8.98h3zm0-14.96h-3v-8.97h3zm0-14.96h-3v-8.97h3zm0-14.95h-3v-8.98h3zm0-14.96h-3v-8.98h3zm0-14.97h-3v-8.97h3zm0-14.95h-3v-8.98h3zm0-14.96h-3v-8.97h3zm0-14.95h-3v-8.98h3zm0-14.96h-3v-8.97h3zm0-14.95h-3v-8.97h3zm0-14.95h-3v-8.98h3zm0-14.96h-3v-8.97h3zm0-14.96h-3v-8.97h3zm0-14.95h-3v-8.98h3zm0-14.96h-3v-8.97h3zm0-14.96h-3v-8.96h3zm0-14.94h-3v-8.6h3zm0-29.94h-3v-8.95h3zm-3.7-25.94l2.72 2.7.98 3.62v4.7h-3v-4.3l-.66-2.45-1.6-1.6-2.44-.65h-4.3v-3h4.7zm-14.3 2.02h-9v-3h9zm-15 0h-9v-3h9zm-15 0h-9v-3h9zm-15 0h-9v-3h9zm-15 0h-9v-3h9zm-15 0h-9v-3h9zm-15 0h-9v-3h9zm-15 0h-9v-3h9zm-15 0h-9v-3h9zm-15 0h-9v-3h9zm-15 0h-9v-3h9zm-15 0h-9v-3h9zm-15 0h-9v-3h9zm-15 0h-9v-3h9zm-15 0h-9v-3h9zm-15 0h-9v-3h9zm-15 0h-9v-3h9zm-15 0h-9v-3h9zm-15 0h-9v-3h9zm-15 0h-9v-3h9zm-15 0h-9v-3h9zm-15 0h-9v-3h9zm-15 0h-9v-3h9zm-15 0h-9v-3h9zm-15 0h-9v-3h9zm-15 0h-4.5v-3h4.5z" fill="#999"/><path d="M1380.03 500.1l-1.5-.1h-.53l-.97.08v-1.62h3zM981.04 153.14l-14.26-4.64 14.26-4.64z" fill="#999"/><path d="M982.54 155.2l-20.62-6.7 20.62-6.7zm-10.9-6.7l7.9 2.57v-5.14z" fill="#999"/><use xlink:href="#F" transform="matrix(1,0,0,1,1336.2333332487894,173.92059956529314) translate(0.010000000000005116 14.222222222222223)"/><path d="M827.03-31.67v4.3c0 7.8-9.74 15.86-21.62 15.86h-63.77C729.75-11.5 720-19.58 720-27.4v-4.3z" fill="#7d7c7c"/><path d="M761.2-73.5c11.03 0 20.34 5.33 24.94 14.18 6.32-3.8 15-2.4 19.27 3.23 1.6 2 2.36 4.05 2.47 6.45 10.8.82 19.16 10.03 19.16 17.35v1.58c0 7.86-9.74 15.83-21.62 15.83h-63.78C729.74-14.9 720-22.85 720-30.7v-1.58c0-6.1 5.78-14.42 13.8-16.47v-.7c.1-13.3 12.3-24.1 27.4-24.03z" fill="#d2d3d3"/><path d="M750-34.85h12.15v14.9H750v-14.9z" fill="#fff"/><path d="M740.92-30.92l15.16-23.25 15.16 23.25h-30.32zM780.33-54.3h12.16v14.9h-12.17v-14.9z" fill="#fff"/><path d="M801.56-43.3L786.4-20.07 771.24-43.3h30.32z" fill="#fff"/><use xlink:href="#M" transform="matrix(1,0,0,1,720,-11.5) translate(16.376543209876544 17.77777777777778)"/><path d="M622.78-32.5h78.75" stroke="#5e5e5e" stroke-width="2" fill="none"/><path d="M622.8-31.5h-1.02v-2h1.03z" fill="#5e5e5e"/><path d="M716.8-32.5l-14.27 4.64v-9.28z" stroke="#5e5e5e" stroke-width="2" fill="#5e5e5e"/><path d="M368.46 1010c0-16.57 13.43-30 30-30h1008.08c16.57 0 30 13.43 30 30v145c0 16.57-13.43 30-30 30H398.46c-16.57 0-30-13.43-30-30z" fill-opacity="0"/><path d="M376.55 989.67l1.52-1.64m9.45-5.9l3.86-1.3 4.93-.75 2.16-.08h15m15 0h3m15 0h30m15 0h3m15 0h30m15 0h3m15 0h30.02m15 0h3m15 0h30m15 0h3m15 0h30m15 0h3m15 0h30m15 0h3m15 0h30.02m15 0h3m15 0h30m15 0h3m15 0h30m15 0h3m15 0h30m15 0h3m15 0h30.02m15 0h3m15 0h30m15 0h3m15 0h30m15 0h3m15 0h30m15 0h3m15 0h30.02m15 0h3m15 0h15l5 .42 4.82 1.22 1.1.5m9.4 5.95l1.65 1.5m5.92 9.46l1.28 3.86.76 4.93.08 2.15v17.26m0 17.26v3.46m0 17.26v34.52m0 17.26v3.46m0 17.26V1155l-.42 5-1.23 4.82-.5 1.1m-5.95 9.4l-1.52 1.65m-9.45 5.9l-3.86 1.3-4.93.75-2.16.08h-15m-15 0h-3m-15 0h-30m-15 0h-3m-15 0h-30m-15 0h-3m-15 0h-30.02m-15 0h-3m-15 0h-30m-15 0h-3m-15 0h-30m-15 0h-3m-15 0h-30m-15 0h-3m-15 0H950.5m-15 0h-3m-15 0h-30m-15 0h-3m-15 0h-30m-15 0h-3m-15 0h-30m-15 0h-3m-15 0h-30.02m-15 0h-3m-15 0h-30m-15 0h-3m-15 0h-30m-15 0h-3m-15 0h-30m-15 0h-3m-15 0h-30.02m-15 0h-3m-15 0h-15l-5-.42-4.82-1.22-1.1-.5m-9.4-5.95l-1.65-1.5m-5.92-9.46l-1.28-3.86-.76-4.93-.08-2.15v-17.26m0-17.26v-3.46m0-17.26v-34.52m0-17.26v-3.46m0-17.26V1010l.42-5 1.23-4.82.5-1.1" stroke="#474747" stroke-width="3" fill="none"/><path d="M915.25 1088v-17.63l-7.55-7.53-4.96-4.94 4.96-4.94 7.55-7.52V1027.3h8.8v-5.7L900 1005.03l-24.07 16.55v5.7h8.8V1045.45l7.56 7.52 4.95 4.94-4.96 4.94-7.56 7.53V1088l-8.8-5.38v5.8l24.05 24.07 24.06-24.08v-5.8l-8.8 5.37z" fill="#9d5025"/><path d="M886 1057.88v-5.78l-24.05-6.77H840v25.1h21.95v11.5l24.06-24.05zM960 1045.33h-21.96l-24.06 6.77v5.78l24.06 24.04v-11.5H960v-25.1z" fill="#9d5025"/><path d="M915.25 1082.26v-17.7l-7.55-7.53-4.96-4.92 4.96-5 7.55-7.44v-18.13h8.8L900 997.5l-24.07 24.03h8.8v18.14l7.56 7.42 4.95 5-4.96 4.93-7.56 7.54v18.13h-8.8l24.05 24.03 24.06-24.03h-8.8v-.44z" fill="#f58536"/><path d="M886 1052.1l-24.05-24.06v11.5H840v25.12h21.95v11.5L886 1052.1zM960 1039.54h-21.96v-11.5l-24.06 24.06 24.06 24.06v-11.5H960v-25.12z" fill="#f58536"/><use xlink:href="#N" transform="matrix(1,0,0,1,840,1112.5) translate(37.160493827160494 17.77777777777778)"/><use xlink:href="#O" transform="matrix(1,0,0,1,840,1112.5) translate(23.641975308641975 44.44444444444444)"/><path d="M525.8 1007.4l-4 1.65v46.9l4 1.65 16.24-23.9-16.24-26.3z" fill="#9d5025"/><path d="M535.14 1055.8l-9.34 1.8v-50.2l9.34 1.75v46.64z" fill="#f58536"/><path d="M530.22 1005.55l4.93-2.03 23.4 31.06-23.4 26.88-4.93-2.03v-53.88z" fill="#9d5025"/><path d="M546.8 1058.74l-11.65 2.72v-57.94l11.65 2.73v52.5z" fill="#f58536"/><path d="M540.64 1001.25l6.18-2.57 34.52 39.3-34.52 28.32-6.18-2.57v-62.48z" fill="#9d5025"/><path d="M561.77 1061.77l-14.96 4.53v-67.62l14.97 4.53v58.57z" fill="#f58536"/><path d="M553.8 995.78l7.98-3.28 37.35 42.24-37.35 37.76-7.98-3.28v-73.44z" fill="#9d5025"/><path d="M601.78 1055.94l-40 16.56v-80l40 16.56v46.88z" fill="#f58536"/><path d="M480.55 1047.4l-4 1.65v46.9l4 1.65 16.24-23.9-16.25-26.3z" fill="#9d5025"/><path d="M489.9 1095.8l-9.35 1.8v-50.2l9.34 1.75v46.64z" fill="#f58536"/><path d="M484.97 1045.55l4.93-2.03 23.4 31.06-23.4 26.88-4.93-2.03v-53.88z" fill="#9d5025"/><path d="M501.55 1098.74l-11.65 2.72v-57.94l11.65 2.73v52.5z" fill="#f58536"/><path d="M495.4 1041.25l6.17-2.57 34.52 39.3-34.53 28.32-6.18-2.57v-62.48z" fill="#9d5025"/><path d="M516.52 1101.77l-14.96 4.53v-67.62l14.96 4.53v58.57z" fill="#f58536"/><path d="M508.55 1035.78l7.98-3.28 37.35 42.24-37.35 37.76-7.98-3.28v-73.44z" fill="#9d5025"/><path d="M556.53 1095.94l-40 16.56v-80l40 16.56v46.88z" fill="#f58536"/><use xlink:href="#P" transform="matrix(1,0,0,1,476.53885295705595,1112.5) translate(17.40740740740741 17.77777777777778)"/><use xlink:href="#Q" transform="matrix(1,0,0,1,476.53885295705595,1112.5) translate(-14.2283950617284 44.44444444444444)"/><path d="M1264.25 1009.9l-3.96 1.65v46.9l3.95 1.65 16.03-23.9-16.03-26.3z" fill="#9d5025"/><path d="M1273.47 1058.3l-9.22 1.8v-50.2l9.22 1.75v46.64z" fill="#f58536"/><path d="M1268.62 1008.05l4.86-2.03 23.12 31.06-23.12 26.88-4.86-2.03v-53.88z" fill="#9d5025"/><path d="M1285 1061.24l-11.52 2.72v-57.94l11.5 2.73v52.5z" fill="#f58536"/><path d="M1278.9 1003.75l6.1-2.57 34.1 39.3-34.1 28.32-6.1-2.57v-62.48z" fill="#9d5025"/><path d="M1299.77 1064.27l-14.77 4.53v-67.62l14.77 4.53v58.57z" fill="#f58536"/><path d="M1291.9 998.28l7.88-3.28 36.9 42.24-36.9 37.76-7.88-3.28v-73.44z" fill="#9d5025"/><path d="M1339.28 1058.44l-39.5 16.56v-80l39.5 16.56v46.88z" fill="#f58536"/><path d="M1220.5 1049.9l-3.96 1.65v46.9l3.96 1.65 16.03-23.9-16.03-26.3z" fill="#9d5025"/><path d="M1229.72 1098.3l-9.22 1.8v-50.2l9.22 1.75v46.64z" fill="#f58536"/><path d="M1224.87 1048.05l4.86-2.03 23.12 31.06-23.12 26.88-4.86-2.03v-53.88z" fill="#9d5025"/><path d="M1241.24 1101.24l-11.5 2.72v-57.94l11.5 2.73v52.5z" fill="#f58536"/><path d="M1235.15 1043.75l6.1-2.57 34.1 39.3-34.1 28.32-6.1-2.57v-62.48z" fill="#9d5025"/><path d="M1256.02 1104.27l-14.77 4.53v-67.62l14.77 4.53v58.57z" fill="#f58536"/><path d="M1248.15 1038.28l7.88-3.28 36.9 42.24-36.9 37.76-7.88-3.28v-73.44z" fill="#9d5025"/><path d="M1295.53 1098.44l-39.5 16.56v-80l39.5 16.56v46.88z" fill="#f58536"/><use xlink:href="#P" transform="matrix(1,0,0,1,1216.538852957056,1115) translate(16.90740740740741 17.77777777777778)"/><use xlink:href="#Q" transform="matrix(1,0,0,1,1216.538852957056,1115) translate(-14.7283950617284 44.44444444444444)"/><path d="M859.1 870.1H567.8c-3.32 0-6 2.7-6 6V974" stroke="#5e5e5e" stroke-width="2" fill="none"/><path d="M860.14 871.1h-1.08v-2h.98z" fill="#5e5e5e"/><path d="M561.8 989.27L557.14 975h9.27z" stroke="#5e5e5e" stroke-width="2" fill="#5e5e5e"/><path d="M940.9 870.1h309.14c3.3 0 6 2.7 6 6v140.4" stroke="#5e5e5e" stroke-width="2" fill="none"/><path d="M940.92 871.1h-1.1l.13-2h.97z" fill="#5e5e5e"/><path d="M1256.04 1031.77l-4.64-14.27h9.27z" stroke="#5e5e5e" stroke-width="2" fill="#5e5e5e"/><path d="M-228.27 326c0-3.3 2.7-6 6-6H82.27c3.3 0 6 2.7 6 6v29.67c0 3.3-2.7 6-6 6h-304.54c-3.3 0-6-2.7-6-6z" stroke="#000" stroke-opacity="0" stroke-width="3" fill="#fff"/><use xlink:href="#R" transform="matrix(1,0,0,1,-223.26942647852798,325) translate(67.82098765432099 19.77777777777778)"/><use xlink:href="#S" transform="matrix(1,0,0,1,-223.26942647852798,325) translate(134.3641975308642 19.77777777777778)"/><use xlink:href="#T" transform="matrix(1,0,0,1,-223.26942647852798,325) translate(191.09259259259258 19.77777777777778)"/><path d="M-228.27 361.67h157.72v40h-157.72zM-70.55 361.67H88.27v40H-70.55z" fill="#d2d3d3"/><path d="M-228.27 401.67h157.72v40h-157.72zM-70.55 401.67H88.27v40H-70.55zM-228.27 441.67h157.72v40h-157.72zM-70.55 441.67H88.27v40H-70.55z" fill="#fff"/><path d="M-228.27 361.67v40M-70.55 361.67v40M88.27 361.67v40M-228.27 401.67v40M-70.55 401.67v40M88.27 401.67v40M-228.27 441.67v40M-70.55 441.67v40M88.27 441.67v40M-228.27 361.67h157.72M-70.55 361.67H88.27M-228.27 401.67h157.72M-70.55 401.67H88.27M-228.27 441.67h157.72M-228.27 481.67h157.72M-70.55 441.67H88.27M-70.55 481.67H88.27" stroke="#5e5e5e" stroke-width="3" fill="none"/><use xlink:href="#U" transform="matrix(1,0,0,1,-223.26942647852798,366.6666666666667) translate(18.53703703703703 19.444444444444443)"/><use xlink:href="#V" transform="matrix(1,0,0,1,-65.54764507432017,366.6666666666667) translate(43.69753086419753 19.444444444444443)"/><use xlink:href="#W" transform="matrix(1,0,0,1,-223.26942647852798,406.6666666666667) translate(18.444444444444443 19.444444444444443)"/><use xlink:href="#X" transform="matrix(1,0,0,1,-65.54764507432017,406.6666666666667) translate(51.72222222222222 19.444444444444443)"/><use xlink:href="#Y" transform="matrix(1,0,0,1,-223.26942647852798,446.6666666666667) translate(30.79012345679012 19.444444444444443)"/><use xlink:href="#Z" transform="matrix(1,0,0,1,-65.54764507432017,446.6666666666667) translate(45.611111111111114 19.444444444444443)"/><path d="M1700 326c0-3.3 2.7-6 6-6h304.54c3.3 0 6 2.7 6 6v29.67c0 3.3-2.7 6-6 6H1706c-3.3 0-6-2.7-6-6z" stroke="#000" stroke-opacity="0" stroke-width="3" fill="#fff"/><use xlink:href="#R" transform="matrix(1,0,0,1,1705,325) translate(67.82098765432099 19.77777777777778)"/><use xlink:href="#S" transform="matrix(1,0,0,1,1705,325) translate(134.3641975308642 19.77777777777778)"/><use xlink:href="#T" transform="matrix(1,0,0,1,1705,325) translate(191.09259259259258 19.77777777777778)"/><path d="M1700 361.67h157.72v40H1700zM1857.72 361.67h158.82v40h-158.82z" fill="#d2d3d3"/><path d="M1700 401.67h157.72v40H1700zM1857.72 401.67h158.82v40h-158.82zM1700 441.67h157.72v40H1700zM1857.72 441.67h158.82v40h-158.82z" fill="#fff"/><path d="M1700 361.67v40M1857.72 361.67v40M2016.54 361.67v40M1700 401.67v40M1857.72 401.67v40M2016.54 401.67v40M1700 441.67v40M1857.72 441.67v40M2016.54 441.67v40M1700 361.67h157.72M1857.72 361.67h158.82M1700 401.67h157.72M1857.72 401.67h158.82M1700 441.67h157.72M1700 481.67h157.72M1857.72 441.67h158.82M1857.72 481.67h158.82" stroke="#5e5e5e" stroke-width="3" fill="none"/><use xlink:href="#U" transform="matrix(1,0,0,1,1705,366.6666666666667) translate(18.53703703703703 19.444444444444443)"/><use xlink:href="#V" transform="matrix(1,0,0,1,1862.7217814042078,366.6666666666667) translate(43.69753086419753 19.444444444444443)"/><use xlink:href="#W" transform="matrix(1,0,0,1,1705,406.6666666666667) translate(18.444444444444443 19.444444444444443)"/><use xlink:href="#X" transform="matrix(1,0,0,1,1862.7217814042078,406.6666666666667) translate(51.72222222222222 19.444444444444443)"/><use xlink:href="#Y" transform="matrix(1,0,0,1,1705,446.6666666666667) translate(30.79012345679012 19.444444444444443)"/><use xlink:href="#Z" transform="matrix(1,0,0,1,1862.7217814042078,446.6666666666667) translate(45.611111111111114 19.444444444444443)"/><path d="M-220 876.83c0-3.3 2.7-6 6-6H90.54c3.3 0 6 2.7 6 6v29.67c0 3.3-2.7 6-6 6H-214c-3.3 0-6-2.7-6-6z" stroke="#000" stroke-opacity="0" stroke-width="3" fill="#fff"/><use xlink:href="#j" transform="matrix(1,0,0,1,-214.99999999999997,875.8333333333331) translate(54.24074074074073 19.77777777777778)"/><use xlink:href="#S" transform="matrix(1,0,0,1,-214.99999999999997,875.8333333333331) translate(129.42592592592592 19.77777777777778)"/><use xlink:href="#aa" transform="matrix(1,0,0,1,-214.99999999999997,875.8333333333331) translate(186.15432098765433 19.77777777777778)"/><use xlink:href="#h" transform="matrix(1,0,0,1,-214.99999999999997,875.8333333333331) translate(240.4135802469136 19.77777777777778)"/><path d="M-270 912.5h233.35v40H-270zM-36.65 912.5H130v40H-36.65z" fill="#d2d3d3"/><path d="M-270 952.5h233.35v40H-270zM-36.65 952.5H130v40H-36.65zM-270 992.5h233.35v40H-270zM-36.65 992.5H130v40H-36.65zM-270 1032.5h233.35v40H-270zM-36.65 1032.5H130v40H-36.65z" fill="#fff"/><path d="M-270 912.5v40M-36.65 912.5v40M130 912.5v40M-270 952.5v40M-36.65 952.5v40M130 952.5v40M-270 992.5v40M-36.65 992.5v40M130 992.5v40M-270 1032.5v40M-36.65 1032.5v40M130 1032.5v40M-270 912.5h233.35M-36.65 912.5H130M-270 952.5h233.35M-36.65 952.5H130M-270 992.5h233.35M-36.65 992.5H130M-270 1032.5h233.35M-270 1072.5h233.35M-36.65 1032.5H130M-36.65 1072.5H130" stroke="#5e5e5e" stroke-width="3" fill="none"/><use xlink:href="#U" transform="matrix(1,0,0,1,-265,917.5) translate(56.53703703703703 19.444444444444443)"/><use xlink:href="#V" transform="matrix(1,0,0,1,-31.645197670993213,917.5) translate(47.69753086419753 19.444444444444443)"/><use xlink:href="#W" transform="matrix(1,0,0,1,-265,957.5) translate(56.44444444444444 19.444444444444443)"/><use xlink:href="#X" transform="matrix(1,0,0,1,-31.645197670993213,957.5) translate(55.72222222222222 19.444444444444443)"/><use xlink:href="#ab" transform="matrix(1,0,0,1,-265,997.5) translate(14.623456790123441 19.444444444444443)"/><use xlink:href="#ac" transform="matrix(1,0,0,1,-265,997.5) translate(62.5864197530864 19.444444444444443)"/><use xlink:href="#ad" transform="matrix(1,0,0,1,-265,997.5) translate(94.62345679012344 19.444444444444443)"/><use xlink:href="#ae" transform="matrix(1,0,0,1,-265,997.5) translate(182.21604938271605 19.444444444444443)"/><use xlink:href="#af" transform="matrix(1,0,0,1,-31.645197670993213,997.5) translate(42.75925925925926 19.444444444444443)"/><use xlink:href="#Y" transform="matrix(1,0,0,1,-265,1037.5) translate(68.79012345679013 19.444444444444443)"/><use xlink:href="#ag" transform="matrix(1,0,0,1,-31.645197670993213,1037.5) translate(5.783950617283963 19.444444444444443)"/><path d="M1730 876.83c0-3.3 2.7-6 6-6h304.54c3.3 0 6 2.7 6 6v29.67c0 3.3-2.7 6-6 6H1736c-3.3 0-6-2.7-6-6z" stroke="#000" stroke-opacity="0" stroke-width="3" fill="#fff"/><use xlink:href="#j" transform="matrix(1,0,0,1,1735,875.8333333333331) translate(54.24074074074073 19.77777777777778)"/><use xlink:href="#S" transform="matrix(1,0,0,1,1735,875.8333333333331) translate(129.42592592592592 19.77777777777778)"/><use xlink:href="#aa" transform="matrix(1,0,0,1,1735,875.8333333333331) translate(186.15432098765433 19.77777777777778)"/><use xlink:href="#i" transform="matrix(1,0,0,1,1735,875.8333333333331) translate(240.4135802469136 19.77777777777778)"/><path d="M1680 912.5h233.35v40H1680zM1913.35 912.5H2080v40h-166.65z" fill="#d2d3d3"/><path d="M1680 952.5h233.35v40H1680zM1913.35 952.5H2080v40h-166.65zM1680 992.5h233.35v40H1680zM1913.35 992.5H2080v40h-166.65zM1680 1032.5h233.35v40H1680zM1913.35 1032.5H2080v40h-166.65z" fill="#fff"/><path d="M1680 912.5v40M1913.35 912.5v40M2080 912.5v40M1680 952.5v40M1913.35 952.5v40M2080 952.5v40M1680 992.5v40M1913.35 992.5v40M2080 992.5v40M1680 1032.5v40M1913.35 1032.5v40M2080 1032.5v40M1680 912.5h233.35M1913.35 912.5H2080M1680 952.5h233.35M1913.35 952.5H2080M1680 992.5h233.35M1913.35 992.5H2080M1680 1032.5h233.35M1680 1072.5h233.35M1913.35 1032.5H2080M1913.35 1072.5H2080" stroke="#5e5e5e" stroke-width="3" fill="none"/><g><use xlink:href="#U" transform="matrix(1,0,0,1,1685,917.4999999999998) translate(56.53703703703703 19.444444444444443)"/></g><g><use xlink:href="#V" transform="matrix(1,0,0,1,1918.3548023290068,917.4999999999998) translate(47.69753086419753 19.444444444444443)"/></g><g><use xlink:href="#W" transform="matrix(1,0,0,1,1685,957.4999999999998) translate(56.44444444444444 19.444444444444443)"/></g><g><use xlink:href="#X" transform="matrix(1,0,0,1,1918.3548023290068,957.4999999999998) translate(55.72222222222222 19.444444444444443)"/></g><g><use xlink:href="#ab" transform="matrix(1,0,0,1,1685,997.4999999999998) translate(14.623456790123441 19.444444444444443)"/><use xlink:href="#ac" transform="matrix(1,0,0,1,1685,997.4999999999998) translate(62.5864197530864 19.444444444444443)"/><use xlink:href="#ad" transform="matrix(1,0,0,1,1685,997.4999999999998) translate(94.62345679012344 19.444444444444443)"/><use xlink:href="#ae" transform="matrix(1,0,0,1,1685,997.4999999999998) translate(182.21604938271605 19.444444444444443)"/></g><g><use xlink:href="#af" transform="matrix(1,0,0,1,1918.3548023290068,997.4999999999998) translate(42.75925925925926 19.444444444444443)"/></g><g><use xlink:href="#Y" transform="matrix(1,0,0,1,1685,1037.4999999999998) translate(68.79012345679013 19.444444444444443)"/></g><g><use xlink:href="#ag" transform="matrix(1,0,0,1,1918.3548023290068,1037.4999999999998) translate(5.783950617283963 19.444444444444443)"/></g><defs><path fill="#333" d="M137 0h-34L2-248h35l83 218 83-218h36" id="ah"/><path fill="#333" d="M30-248c87 1 191-15 191 75 0 78-77 80-158 76V0H30v-248zm33 125c57 0 124 11 124-50 0-59-68-47-124-48v98" id="ai"/><path fill="#333" d="M212-179c-10-28-35-45-73-45-59 0-87 40-87 99 0 60 29 101 89 101 43 0 62-24 78-52l27 14C228-24 195 4 139 4 59 4 22-46 18-125c-6-104 99-153 187-111 19 9 31 26 39 46" id="aj"/><g id="a"><use transform="matrix(0.06172839506172839,0,0,0.06172839506172839,0,0)" xlink:href="#ah"/><use transform="matrix(0.06172839506172839,0,0,0.06172839506172839,14.814814814814813,0)" xlink:href="#ai"/><use transform="matrix(0.06172839506172839,0,0,0.06172839506172839,29.629629629629626,0)" xlink:href="#aj"/></g><path fill="#333" d="M205 0l-28-72H64L36 0H1l101-248h38L239 0h-34zm-38-99l-47-123c-12 45-31 82-46 123h93" id="ak"/><path fill="#333" d="M266 0h-40l-56-210L115 0H75L2-248h35L96-30l15-64 43-154h32l59 218 59-218h35" id="al"/><path fill="#333" d="M185-189c-5-48-123-54-124 2 14 75 158 14 163 119 3 78-121 87-175 55-17-10-28-26-33-46l33-7c5 56 141 63 141-1 0-78-155-14-162-118-5-82 145-84 179-34 5 7 8 16 11 25" id="am"/><g id="b"><use transform="matrix(0.06172839506172839,0,0,0.06172839506172839,0,0)" xlink:href="#ak"/><use transform="matrix(0.06172839506172839,0,0,0.06172839506172839,14.012345679012345,0)" xlink:href="#al"/><use transform="matrix(0.06172839506172839,0,0,0.06172839506172839,34.938271604938265,0)" xlink:href="#am"/></g><path fill="#333" d="M96-169c-40 0-48 33-48 73s9 75 48 75c24 0 41-14 43-38l32 2c-6 37-31 61-74 61-59 0-76-41-82-99-10-93 101-131 147-64 4 7 5 14 7 22l-32 3c-4-21-16-35-41-35" id="an"/><path fill="#333" d="M24 0v-261h32V0H24" id="ao"/><path fill="#333" d="M100-194c62-1 85 37 85 99 1 63-27 99-86 99S16-35 15-95c0-66 28-99 85-99zM99-20c44 1 53-31 53-75 0-43-8-75-51-75s-53 32-53 75 10 74 51 75" id="ap"/><path fill="#333" d="M84 4C-5 8 30-112 23-190h32v120c0 31 7 50 39 49 72-2 45-101 50-169h31l1 190h-30c-1-10 1-25-2-33-11 22-28 36-60 37" id="aq"/><path fill="#333" d="M85-194c31 0 48 13 60 33l-1-100h32l1 261h-30c-2-10 0-23-3-31C134-8 116 4 85 4 32 4 16-35 15-94c0-66 23-100 70-100zm9 24c-40 0-46 34-46 75 0 40 6 74 45 74 42 0 51-32 51-76 0-42-9-74-50-73" id="ar"/><g id="c"><use transform="matrix(0.06172839506172839,0,0,0.06172839506172839,0,0)" xlink:href="#an"/><use transform="matrix(0.06172839506172839,0,0,0.06172839506172839,11.11111111111111,0)" xlink:href="#ao"/><use transform="matrix(0.06172839506172839,0,0,0.06172839506172839,15.987654320987653,0)" xlink:href="#ap"/><use transform="matrix(0.06172839506172839,0,0,0.06172839506172839,28.333333333333332,0)" xlink:href="#aq"/><use transform="matrix(0.06172839506172839,0,0,0.06172839506172839,40.67901234567901,0)" xlink:href="#ar"/></g><path fill="#333" d="M33 0v-248h34V0H33" id="as"/><path fill="#333" d="M117-194c89-4 53 116 60 194h-32v-121c0-31-8-49-39-48C34-167 62-67 57 0H25l-1-190h30c1 10-1 24 2 32 11-22 29-35 61-36" id="at"/><path fill="#333" d="M59-47c-2 24 18 29 38 22v24C64 9 27 4 27-40v-127H5v-23h24l9-43h21v43h35v23H59v120" id="au"/><path fill="#333" d="M100-194c63 0 86 42 84 106H49c0 40 14 67 53 68 26 1 43-12 49-29l28 8c-11 28-37 45-77 45C44 4 14-33 15-96c1-61 26-98 85-98zm52 81c6-60-76-77-97-28-3 7-6 17-6 28h103" id="av"/><path fill="#333" d="M114-163C36-179 61-72 57 0H25l-1-190h30c1 12-1 29 2 39 6-27 23-49 58-41v29" id="aw"/><g id="d"><use transform="matrix(0.06172839506172839,0,0,0.06172839506172839,0,0)" xlink:href="#as"/><use transform="matrix(0.06172839506172839,0,0,0.06172839506172839,6.172839506172839,0)" xlink:href="#at"/><use transform="matrix(0.06172839506172839,0,0,0.06172839506172839,18.51851851851852,0)" xlink:href="#au"/><use transform="matrix(0.06172839506172839,0,0,0.06172839506172839,24.691358024691358,0)" xlink:href="#av"/><use transform="matrix(0.06172839506172839,0,0,0.06172839506172839,37.03703703703704,0)" xlink:href="#aw"/><use transform="matrix(0.06172839506172839,0,0,0.06172839506172839,44.382716049382715,0)" xlink:href="#at"/><use transform="matrix(0.06172839506172839,0,0,0.06172839506172839,56.72839506172839,0)" xlink:href="#av"/><use transform="matrix(0.06172839506172839,0,0,0.06172839506172839,69.07407407407408,0)" xlink:href="#au"/></g><path fill="#333" d="M177-190C167-65 218 103 67 71c-23-6-38-20-44-43l32-5c15 47 100 32 89-28v-30C133-14 115 1 83 1 29 1 15-40 15-95c0-56 16-97 71-98 29-1 48 16 59 35 1-10 0-23 2-32h30zM94-22c36 0 50-32 50-73 0-42-14-75-50-75-39 0-46 34-46 75s6 73 46 73" id="ax"/><path fill="#333" d="M141-36C126-15 110 5 73 4 37 3 15-17 15-53c-1-64 63-63 125-63 3-35-9-54-41-54-24 1-41 7-42 31l-33-3c5-37 33-52 76-52 45 0 72 20 72 64v82c-1 20 7 32 28 27v20c-31 9-61-2-59-35zM48-53c0 20 12 33 32 33 41-3 63-29 60-74-43 2-92-5-92 41" id="ay"/><path fill="#333" d="M206 0h-36l-40-164L89 0H53L-1-190h32L70-26l43-164h34l41 164 42-164h31" id="az"/><path fill="#333" d="M179-190L93 31C79 59 56 82 12 73V49c39 6 53-20 64-50L1-190h34L92-34l54-156h33" id="aA"/><g id="e"><use transform="matrix(0.06172839506172839,0,0,0.06172839506172839,0,0)" xlink:href="#ax"/><use transform="matrix(0.06172839506172839,0,0,0.06172839506172839,12.345679012345679,0)" xlink:href="#ay"/><use transform="matrix(0.06172839506172839,0,0,0.06172839506172839,24.691358024691358,0)" xlink:href="#au"/><use transform="matrix(0.06172839506172839,0,0,0.06172839506172839,30.864197530864196,0)" xlink:href="#av"/><use transform="matrix(0.06172839506172839,0,0,0.06172839506172839,43.20987654320987,0)" xlink:href="#az"/><use transform="matrix(0.06172839506172839,0,0,0.06172839506172839,59.197530864197525,0)" xlink:href="#ay"/><use transform="matrix(0.06172839506172839,0,0,0.06172839506172839,71.5432098765432,0)" xlink:href="#aA"/></g><path fill="#333" d="M108 0H70L1-190h34L89-25l56-165h34" id="aB"/><path fill="#333" d="M24-231v-30h32v30H24zM24 0v-190h32V0H24" id="aC"/><path fill="#333" d="M115-194c53 0 69 39 70 98 0 66-23 100-70 100C84 3 66-7 56-30L54 0H23l1-261h32v101c10-23 28-34 59-34zm-8 174c40 0 45-34 45-75 0-40-5-75-45-74-42 0-51 32-51 76 0 43 10 73 51 73" id="aD"/><g id="f"><use transform="matrix(0.06172839506172839,0,0,0.06172839506172839,0,0)" xlink:href="#ak"/><use transform="matrix(0.06172839506172839,0,0,0.06172839506172839,14.382716049382715,0)" xlink:href="#aB"/><use transform="matrix(0.06172839506172839,0,0,0.06172839506172839,25.493827160493826,0)" xlink:href="#ay"/><use transform="matrix(0.06172839506172839,0,0,0.06172839506172839,37.839506172839506,0)" xlink:href="#aC"/><use transform="matrix(0.06172839506172839,0,0,0.06172839506172839,42.71604938271605,0)" xlink:href="#ao"/><use transform="matrix(0.06172839506172839,0,0,0.06172839506172839,47.592592592592595,0)" xlink:href="#ay"/><use transform="matrix(0.06172839506172839,0,0,0.06172839506172839,59.93827160493827,0)" xlink:href="#aD"/><use transform="matrix(0.06172839506172839,0,0,0.06172839506172839,72.28395061728395,0)" xlink:href="#aC"/><use transform="matrix(0.06172839506172839,0,0,0.06172839506172839,77.1604938271605,0)" xlink:href="#ao"/><use transform="matrix(0.06172839506172839,0,0,0.06172839506172839,82.03703703703704,0)" xlink:href="#aC"/><use transform="matrix(0.06172839506172839,0,0,0.06172839506172839,86.91358024691358,0)" xlink:href="#au"/><use transform="matrix(0.06172839506172839,0,0,0.06172839506172839,93.08641975308642,0)" xlink:href="#aA"/></g><path fill="#333" d="M209 0H11v-25l151-195H24v-28h176v25L50-27h159V0" id="aE"/><g id="g"><use transform="matrix(0.06172839506172839,0,0,0.06172839506172839,0,0)" xlink:href="#aE"/><use transform="matrix(0.06172839506172839,0,0,0.06172839506172839,13.518518518518517,0)" xlink:href="#ap"/><use transform="matrix(0.06172839506172839,0,0,0.06172839506172839,25.864197530864196,0)" xlink:href="#at"/><use transform="matrix(0.06172839506172839,0,0,0.06172839506172839,38.20987654320987,0)" xlink:href="#av"/></g><path fill="#333" d="M27 0v-27h64v-190l-56 39v-29l58-41h29v221h61V0H27" id="aF"/><use transform="matrix(0.06172839506172839,0,0,0.06172839506172839,0,0)" xlink:href="#aF" id="h"/><path fill="#333" d="M101-251c82-7 93 87 43 132L82-64C71-53 59-42 53-27h129V0H18c2-99 128-94 128-182 0-28-16-43-45-43s-46 15-49 41l-32-3c6-41 34-60 81-64" id="aG"/><use transform="matrix(0.06172839506172839,0,0,0.06172839506172839,0,0)" xlink:href="#aG" id="i"/><g id="j"><use transform="matrix(0.06172839506172839,0,0,0.06172839506172839,0,0)" xlink:href="#ai"/><use transform="matrix(0.06172839506172839,0,0,0.06172839506172839,14.814814814814813,0)" xlink:href="#aw"/><use transform="matrix(0.06172839506172839,0,0,0.06172839506172839,22.160493827160494,0)" xlink:href="#aC"/><use transform="matrix(0.06172839506172839,0,0,0.06172839506172839,27.037037037037038,0)" xlink:href="#aB"/><use transform="matrix(0.06172839506172839,0,0,0.06172839506172839,38.14814814814815,0)" xlink:href="#ay"/><use transform="matrix(0.06172839506172839,0,0,0.06172839506172839,50.49382716049383,0)" xlink:href="#au"/><use transform="matrix(0.06172839506172839,0,0,0.06172839506172839,56.66666666666667,0)" xlink:href="#av"/></g><path fill="#333" d="M135-143c-3-34-86-38-87 0 15 53 115 12 119 90S17 21 10-45l28-5c4 36 97 45 98 0-10-56-113-15-118-90-4-57 82-63 122-42 12 7 21 19 24 35" id="aH"/><g id="k"><use transform="matrix(0.06172839506172839,0,0,0.06172839506172839,0,0)" xlink:href="#aH"/><use transform="matrix(0.06172839506172839,0,0,0.06172839506172839,11.11111111111111,0)" xlink:href="#aq"/><use transform="matrix(0.06172839506172839,0,0,0.06172839506172839,23.45679012345679,0)" xlink:href="#aD"/><use transform="matrix(0.06172839506172839,0,0,0.06172839506172839,35.80246913580247,0)" xlink:href="#at"/><use transform="matrix(0.06172839506172839,0,0,0.06172839506172839,48.148148148148145,0)" xlink:href="#av"/><use transform="matrix(0.06172839506172839,0,0,0.06172839506172839,60.49382716049382,0)" xlink:href="#au"/></g><use transform="matrix(0.06172839506172839,0,0,0.06172839506172839,0,0)" xlink:href="#aF" id="l"/><path fill="#333" d="M101-251c68 0 85 55 85 127S166 4 100 4C33 4 14-52 14-124c0-73 17-127 87-127zm-1 229c47 0 54-49 54-102s-4-102-53-102c-51 0-55 48-55 102 0 53 5 102 54 102" id="aI"/><path fill="#333" d="M33 0v-38h34V0H33" id="aJ"/><path fill="#333" d="M0 4l72-265h28L28 4H0" id="aK"/><path fill="#333" d="M155-56V0h-30v-56H8v-25l114-167h33v167h35v25h-35zm-30-156c-27 46-58 90-88 131h88v-131" id="aL"/><g id="m"><use transform="matrix(0.06172839506172839,0,0,0.06172839506172839,0,0)" xlink:href="#aF"/><use transform="matrix(0.06172839506172839,0,0,0.06172839506172839,12.345679012345679,0)" xlink:href="#aI"/><use transform="matrix(0.06172839506172839,0,0,0.06172839506172839,24.691358024691358,0)" xlink:href="#aJ"/><use transform="matrix(0.06172839506172839,0,0,0.06172839506172839,30.864197530864196,0)" xlink:href="#aI"/><use transform="matrix(0.06172839506172839,0,0,0.06172839506172839,43.20987654320987,0)" xlink:href="#aJ"/><use transform="matrix(0.06172839506172839,0,0,0.06172839506172839,49.382716049382715,0)" xlink:href="#aG"/><use transform="matrix(0.06172839506172839,0,0,0.06172839506172839,61.72839506172839,0)" xlink:href="#aJ"/><use transform="matrix(0.06172839506172839,0,0,0.06172839506172839,67.90123456790123,0)" xlink:href="#aI"/><use transform="matrix(0.06172839506172839,0,0,0.06172839506172839,80.24691358024691,0)" xlink:href="#aK"/><use transform="matrix(0.06172839506172839,0,0,0.06172839506172839,86.41975308641975,0)" xlink:href="#aG"/><use transform="matrix(0.06172839506172839,0,0,0.06172839506172839,98.76543209876543,0)" xlink:href="#aL"/></g><use transform="matrix(0.06172839506172839,0,0,0.06172839506172839,0,0)" xlink:href="#aG" id="n"/><path fill="#333" d="M126-127c33 6 58 20 58 59 0 88-139 92-164 29-3-8-5-16-6-25l32-3c6 27 21 44 54 44 32 0 52-15 52-46 0-38-36-46-79-43v-28c39 1 72-4 72-42 0-27-17-43-46-43-28 0-47 15-49 41l-32-3c6-42 35-63 81-64 48-1 79 21 79 65 0 36-21 52-52 59" id="aM"/><g id="o"><use transform="matrix(0.06172839506172839,0,0,0.06172839506172839,0,0)" xlink:href="#aF"/><use transform="matrix(0.06172839506172839,0,0,0.06172839506172839,12.345679012345679,0)" xlink:href="#aI"/><use transform="matrix(0.06172839506172839,0,0,0.06172839506172839,24.691358024691358,0)" xlink:href="#aJ"/><use transform="matrix(0.06172839506172839,0,0,0.06172839506172839,30.864197530864196,0)" xlink:href="#aI"/><use transform="matrix(0.06172839506172839,0,0,0.06172839506172839,43.20987654320987,0)" xlink:href="#aJ"/><use transform="matrix(0.06172839506172839,0,0,0.06172839506172839,49.382716049382715,0)" xlink:href="#aM"/><use transform="matrix(0.06172839506172839,0,0,0.06172839506172839,61.72839506172839,0)" xlink:href="#aJ"/><use transform="matrix(0.06172839506172839,0,0,0.06172839506172839,67.90123456790123,0)" xlink:href="#aI"/><use transform="matrix(0.06172839506172839,0,0,0.06172839506172839,80.24691358024691,0)" xlink:href="#aK"/><use transform="matrix(0.06172839506172839,0,0,0.06172839506172839,86.41975308641975,0)" xlink:href="#aG"/><use transform="matrix(0.06172839506172839,0,0,0.06172839506172839,98.76543209876543,0)" xlink:href="#aL"/></g><g id="p"><use transform="matrix(0.06172839506172839,0,0,0.06172839506172839,0,0)" xlink:href="#ai"/><use transform="matrix(0.06172839506172839,0,0,0.06172839506172839,14.814814814814813,0)" xlink:href="#aq"/><use transform="matrix(0.06172839506172839,0,0,0.06172839506172839,27.160493827160494,0)" xlink:href="#aD"/><use transform="matrix(0.06172839506172839,0,0,0.06172839506172839,39.50617283950617,0)" xlink:href="#ao"/><use transform="matrix(0.06172839506172839,0,0,0.06172839506172839,44.382716049382715,0)" xlink:href="#aC"/><use transform="matrix(0.06172839506172839,0,0,0.06172839506172839,49.25925925925926,0)" xlink:href="#an"/></g><g id="q"><use transform="matrix(0.06172839506172839,0,0,0.06172839506172839,0,0)" xlink:href="#am"/><use transform="matrix(0.06172839506172839,0,0,0.06172839506172839,14.814814814814813,0)" xlink:href="#aq"/><use transform="matrix(0.06172839506172839,0,0,0.06172839506172839,27.160493827160494,0)" xlink:href="#aD"/><use transform="matrix(0.06172839506172839,0,0,0.06172839506172839,39.50617283950617,0)" xlink:href="#at"/><use transform="matrix(0.06172839506172839,0,0,0.06172839506172839,51.85185185185185,0)" xlink:href="#av"/><use transform="matrix(0.06172839506172839,0,0,0.06172839506172839,64.19753086419753,0)" xlink:href="#au"/></g><use transform="matrix(0.06172839506172839,0,0,0.06172839506172839,0,0)" xlink:href="#aF" id="r"/><g id="s"><use transform="matrix(0.06172839506172839,0,0,0.06172839506172839,0,0)" xlink:href="#aF"/><use transform="matrix(0.06172839506172839,0,0,0.06172839506172839,12.345679012345679,0)" xlink:href="#aI"/><use transform="matrix(0.06172839506172839,0,0,0.06172839506172839,24.691358024691358,0)" xlink:href="#aJ"/><use transform="matrix(0.06172839506172839,0,0,0.06172839506172839,30.864197530864196,0)" xlink:href="#aI"/><use transform="matrix(0.06172839506172839,0,0,0.06172839506172839,43.20987654320987,0)" xlink:href="#aJ"/><use transform="matrix(0.06172839506172839,0,0,0.06172839506172839,49.382716049382715,0)" xlink:href="#aI"/><use transform="matrix(0.06172839506172839,0,0,0.06172839506172839,61.72839506172839,0)" xlink:href="#aJ"/><use transform="matrix(0.06172839506172839,0,0,0.06172839506172839,67.90123456790123,0)" xlink:href="#aI"/><use transform="matrix(0.06172839506172839,0,0,0.06172839506172839,80.24691358024691,0)" xlink:href="#aK"/><use transform="matrix(0.06172839506172839,0,0,0.06172839506172839,86.41975308641975,0)" xlink:href="#aG"/><use transform="matrix(0.06172839506172839,0,0,0.06172839506172839,98.76543209876543,0)" xlink:href="#aL"/></g><use transform="matrix(0.06172839506172839,0,0,0.06172839506172839,0,0)" xlink:href="#aG" id="t"/><g id="u"><use transform="matrix(0.06172839506172839,0,0,0.06172839506172839,0,0)" xlink:href="#aF"/><use transform="matrix(0.06172839506172839,0,0,0.06172839506172839,12.345679012345679,0)" xlink:href="#aI"/><use transform="matrix(0.06172839506172839,0,0,0.06172839506172839,24.691358024691358,0)" xlink:href="#aJ"/><use transform="matrix(0.06172839506172839,0,0,0.06172839506172839,30.864197530864196,0)" xlink:href="#aI"/><use transform="matrix(0.06172839506172839,0,0,0.06172839506172839,43.20987654320987,0)" xlink:href="#aJ"/><use transform="matrix(0.06172839506172839,0,0,0.06172839506172839,49.382716049382715,0)" xlink:href="#aF"/><use transform="matrix(0.06172839506172839,0,0,0.06172839506172839,61.72839506172839,0)" xlink:href="#aJ"/><use transform="matrix(0.06172839506172839,0,0,0.06172839506172839,67.90123456790123,0)" xlink:href="#aI"/><use transform="matrix(0.06172839506172839,0,0,0.06172839506172839,80.24691358024691,0)" xlink:href="#aK"/><use transform="matrix(0.06172839506172839,0,0,0.06172839506172839,86.41975308641975,0)" xlink:href="#aG"/><use transform="matrix(0.06172839506172839,0,0,0.06172839506172839,98.76543209876543,0)" xlink:href="#aL"/></g><path fill="#333" d="M190 0L58-211 59 0H30v-248h39L202-35l-2-213h31V0h-41" id="aN"/><path fill="#333" d="M127-220V0H93v-220H8v-28h204v28h-85" id="aO"/><g id="v"><use transform="matrix(0.06172839506172839,0,0,0.06172839506172839,0,0)" xlink:href="#aN"/><use transform="matrix(0.06172839506172839,0,0,0.06172839506172839,15.987654320987653,0)" xlink:href="#ak"/><use transform="matrix(0.06172839506172839,0,0,0.06172839506172839,29.1358024691358,0)" xlink:href="#aO"/></g><path fill="#333" d="M143 0L79-87 56-68V0H24v-261h32v163l83-92h37l-77 82L181 0h-38" id="aP"/><g id="w"><use transform="matrix(0.06172839506172839,0,0,0.06172839506172839,0,0)" xlink:href="#aD"/><use transform="matrix(0.06172839506172839,0,0,0.06172839506172839,12.345679012345679,0)" xlink:href="#aq"/><use transform="matrix(0.06172839506172839,0,0,0.06172839506172839,24.691358024691358,0)" xlink:href="#an"/><use transform="matrix(0.06172839506172839,0,0,0.06172839506172839,35.80246913580247,0)" xlink:href="#aP"/><use transform="matrix(0.06172839506172839,0,0,0.06172839506172839,46.91358024691358,0)" xlink:href="#av"/><use transform="matrix(0.06172839506172839,0,0,0.06172839506172839,59.25925925925926,0)" xlink:href="#au"/></g><g id="x"><use transform="matrix(0.06172839506172839,0,0,0.06172839506172839,0,0)" xlink:href="#aw"/><use transform="matrix(0.06172839506172839,0,0,0.06172839506172839,7.345679012345679,0)" xlink:href="#ap"/><use transform="matrix(0.06172839506172839,0,0,0.06172839506172839,19.691358024691358,0)" xlink:href="#ao"/><use transform="matrix(0.06172839506172839,0,0,0.06172839506172839,24.5679012345679,0)" xlink:href="#av"/></g><path fill="#333" d="M30 0v-248h33v221h125V0H30" id="aQ"/><g id="z"><use transform="matrix(0.06172839506172839,0,0,0.06172839506172839,0,0)" xlink:href="#aQ"/><use transform="matrix(0.06172839506172839,0,0,0.06172839506172839,12.345679012345679,0)" xlink:href="#ap"/><use transform="matrix(0.06172839506172839,0,0,0.06172839506172839,24.691358024691358,0)" xlink:href="#ay"/><use transform="matrix(0.06172839506172839,0,0,0.06172839506172839,37.03703703703704,0)" xlink:href="#ar"/></g><path fill="#333" d="M160-131c35 5 61 23 61 61C221 17 115-2 30 0v-248c76 3 177-17 177 60 0 33-19 50-47 57zm-97-11c50-1 110 9 110-42 0-47-63-36-110-37v79zm0 115c55-2 124 14 124-45 0-56-70-42-124-44v89" id="aR"/><g id="A"><use transform="matrix(0.06172839506172839,0,0,0.06172839506172839,0,0)" xlink:href="#aR"/><use transform="matrix(0.06172839506172839,0,0,0.06172839506172839,14.814814814814813,0)" xlink:href="#ay"/><use transform="matrix(0.06172839506172839,0,0,0.06172839506172839,27.160493827160494,0)" xlink:href="#ao"/><use transform="matrix(0.06172839506172839,0,0,0.06172839506172839,32.03703703703704,0)" xlink:href="#ay"/><use transform="matrix(0.06172839506172839,0,0,0.06172839506172839,44.382716049382715,0)" xlink:href="#at"/><use transform="matrix(0.06172839506172839,0,0,0.06172839506172839,56.72839506172839,0)" xlink:href="#an"/><use transform="matrix(0.06172839506172839,0,0,0.06172839506172839,67.8395061728395,0)" xlink:href="#av"/><use transform="matrix(0.06172839506172839,0,0,0.06172839506172839,80.18518518518519,0)" xlink:href="#aw"/></g><g id="B"><use transform="matrix(0.06172839506172839,0,0,0.06172839506172839,0,0)" xlink:href="#aq"/><use transform="matrix(0.06172839506172839,0,0,0.06172839506172839,12.345679012345679,0)" xlink:href="#aH"/><use transform="matrix(0.06172839506172839,0,0,0.06172839506172839,23.45679012345679,0)" xlink:href="#av"/><use transform="matrix(0.06172839506172839,0,0,0.06172839506172839,35.80246913580247,0)" xlink:href="#aw"/><use transform="matrix(0.06172839506172839,0,0,0.06172839506172839,43.148148148148145,0)" xlink:href="#aH"/></g><path fill="#333" d="M153-248C145-148 188 4 80 4 36 3 13-21 6-62l32-5c4 25 16 42 43 43 27 0 39-20 39-49v-147H72v-28h81" id="aS"/><path fill="#333" d="M210-169c-67 3-38 105-44 169h-31v-121c0-29-5-50-35-48C34-165 62-65 56 0H25l-1-190h30c1 10-1 24 2 32 10-44 99-50 107 0 11-21 27-35 58-36 85-2 47 119 55 194h-31v-121c0-29-5-49-35-48" id="aT"/><path fill="#333" d="M115-194c55 1 70 41 70 98S169 2 115 4C84 4 66-9 55-30l1 105H24l-1-265h31l2 30c10-21 28-34 59-34zm-8 174c40 0 45-34 45-75s-6-73-45-74c-42 0-51 32-51 76 0 43 10 73 51 73" id="aU"/><path fill="#333" d="M141 0L90-78 38 0H4l68-98-65-92h35l48 74 47-74h35l-64 92 68 98h-35" id="aV"/><g id="C"><use transform="matrix(0.06172839506172839,0,0,0.06172839506172839,0,0)" xlink:href="#aS"/><use transform="matrix(0.06172839506172839,0,0,0.06172839506172839,11.11111111111111,0)" xlink:href="#aq"/><use transform="matrix(0.06172839506172839,0,0,0.06172839506172839,23.45679012345679,0)" xlink:href="#aT"/><use transform="matrix(0.06172839506172839,0,0,0.06172839506172839,41.91358024691358,0)" xlink:href="#aU"/><use transform="matrix(0.06172839506172839,0,0,0.06172839506172839,54.25925925925926,0)" xlink:href="#aR"/><use transform="matrix(0.06172839506172839,0,0,0.06172839506172839,69.07407407407408,0)" xlink:href="#ap"/><use transform="matrix(0.06172839506172839,0,0,0.06172839506172839,81.41975308641976,0)" xlink:href="#aV"/></g><g id="D"><use transform="matrix(0.06172839506172839,0,0,0.06172839506172839,0,0)" xlink:href="#aw"/><use transform="matrix(0.06172839506172839,0,0,0.06172839506172839,7.345679012345679,0)" xlink:href="#ap"/><use transform="matrix(0.06172839506172839,0,0,0.06172839506172839,19.691358024691358,0)" xlink:href="#aq"/><use transform="matrix(0.06172839506172839,0,0,0.06172839506172839,32.03703703703704,0)" xlink:href="#au"/><use transform="matrix(0.06172839506172839,0,0,0.06172839506172839,38.20987654320988,0)" xlink:href="#av"/><use transform="matrix(0.06172839506172839,0,0,0.06172839506172839,50.55555555555556,0)" xlink:href="#aw"/></g><path fill="#333" d="M140-251c80 0 125 45 125 126S219 4 139 4C58 4 15-44 15-125s44-126 125-126zm-1 214c52 0 73-35 73-88 0-50-21-86-72-86-52 0-73 35-73 86s22 88 72 88" id="aW"/><path fill="#333" d="M85 4C-2 5 27-109 22-190h50c7 57-23 150 33 157 60-5 35-97 40-157h50l1 190h-47c-2-12 1-28-3-38-12 25-28 42-61 42" id="aX"/><path fill="#333" d="M115-3C79 11 28 4 28-45v-112H4v-33h27l15-45h31v45h36v33H77v99c-1 23 16 31 38 25v30" id="aY"/><path fill="#333" d="M135-194c52 0 70 43 70 98 0 56-19 99-73 100-30 1-46-15-58-35L72 0H24l1-261h50v104c11-23 29-37 60-37zM114-30c31 0 40-27 40-66 0-37-7-63-39-63s-41 28-41 65c0 36 8 64 40 64" id="aZ"/><path fill="#333" d="M110-194c64 0 96 36 96 99 0 64-35 99-97 99-61 0-95-36-95-99 0-62 34-99 96-99zm-1 164c35 0 45-28 45-65 0-40-10-65-43-65-34 0-45 26-45 65 0 36 10 65 43 65" id="ba"/><path fill="#333" d="M135-194c87-1 58 113 63 194h-50c-7-57 23-157-34-157-59 0-34 97-39 157H25l-1-190h47c2 12-1 28 3 38 12-26 28-41 61-42" id="bb"/><path fill="#333" d="M88-194c31-1 46 15 58 34l-1-101h50l1 261h-48c-2-10 0-23-3-31C134-8 116 4 84 4 32 4 16-41 15-95c0-56 19-97 73-99zm17 164c33 0 40-30 41-66 1-37-9-64-41-64s-38 30-39 65c0 43 13 65 39 65" id="bc"/><g id="F"><use transform="matrix(0.04938271604938272,0,0,0.04938271604938272,0,0)" xlink:href="#aW"/><use transform="matrix(0.04938271604938272,0,0,0.04938271604938272,13.827160493827162,0)" xlink:href="#aX"/><use transform="matrix(0.04938271604938272,0,0,0.04938271604938272,24.641975308641975,0)" xlink:href="#aY"/><use transform="matrix(0.04938271604938272,0,0,0.04938271604938272,30.518518518518523,0)" xlink:href="#aZ"/><use transform="matrix(0.04938271604938272,0,0,0.04938271604938272,41.333333333333336,0)" xlink:href="#ba"/><use transform="matrix(0.04938271604938272,0,0,0.04938271604938272,52.14814814814815,0)" xlink:href="#aX"/><use transform="matrix(0.04938271604938272,0,0,0.04938271604938272,62.96296296296297,0)" xlink:href="#bb"/><use transform="matrix(0.04938271604938272,0,0,0.04938271604938272,73.77777777777779,0)" xlink:href="#bc"/></g><path fill="#333" d="M24 0v-248h52V0H24" id="bd"/><g id="G"><use transform="matrix(0.04938271604938272,0,0,0.04938271604938272,0,0)" xlink:href="#bd"/><use transform="matrix(0.04938271604938272,0,0,0.04938271604938272,4.938271604938272,0)" xlink:href="#bb"/><use transform="matrix(0.04938271604938272,0,0,0.04938271604938272,15.753086419753087,0)" xlink:href="#aZ"/><use transform="matrix(0.04938271604938272,0,0,0.04938271604938272,26.567901234567902,0)" xlink:href="#ba"/><use transform="matrix(0.04938271604938272,0,0,0.04938271604938272,37.382716049382715,0)" xlink:href="#aX"/><use transform="matrix(0.04938271604938272,0,0,0.04938271604938272,48.19753086419753,0)" xlink:href="#bb"/><use transform="matrix(0.04938271604938272,0,0,0.04938271604938272,59.01234567901235,0)" xlink:href="#bc"/></g><path fill="#333" d="M136-208V0H84v-208H4v-40h212v40h-80" id="be"/><path fill="#333" d="M135-150c-39-12-60 13-60 57V0H25l-1-190h47c2 13-1 29 3 40 6-28 27-53 61-41v41" id="bf"/><path fill="#333" d="M133-34C117-15 103 5 69 4 32 3 11-16 11-54c-1-60 55-63 116-61 1-26-3-47-28-47-18 1-26 9-28 27l-52-2c7-38 36-58 82-57s74 22 75 68l1 82c-1 14 12 18 25 15v27c-30 8-71 5-69-32zm-48 3c29 0 43-24 42-57-32 0-66-3-65 30 0 17 8 27 23 27" id="bg"/><path fill="#333" d="M121-226c-27-7-43 5-38 36h38v33H83V0H34v-157H6v-33h28c-9-59 32-81 87-68v32" id="bh"/><path fill="#333" d="M25-224v-37h50v37H25zM25 0v-190h50V0H25" id="bi"/><path fill="#333" d="M190-63c-7 42-38 67-86 67-59 0-84-38-90-98-12-110 154-137 174-36l-49 2c-2-19-15-32-35-32-30 0-35 28-38 64-6 74 65 87 74 30" id="bj"/><g id="H"><use transform="matrix(0.04938271604938272,0,0,0.04938271604938272,0,0)" xlink:href="#be"/><use transform="matrix(0.04938271604938272,0,0,0.04938271604938272,9.82716049382716,0)" xlink:href="#bf"/><use transform="matrix(0.04938271604938272,0,0,0.04938271604938272,16.74074074074074,0)" xlink:href="#bg"/><use transform="matrix(0.04938271604938272,0,0,0.04938271604938272,26.617283950617285,0)" xlink:href="#bh"/><use transform="matrix(0.04938271604938272,0,0,0.04938271604938272,32.49382716049383,0)" xlink:href="#bh"/><use transform="matrix(0.04938271604938272,0,0,0.04938271604938272,38.370370370370374,0)" xlink:href="#bi"/><use transform="matrix(0.04938271604938272,0,0,0.04938271604938272,43.308641975308646,0)" xlink:href="#bj"/></g><path fill="#333" d="M30 0v-248h187v28H63v79h144v27H63v87h162V0H30" id="bk"/><g id="I"><use transform="matrix(0.06172839506172839,0,0,0.06172839506172839,0,0)" xlink:href="#bk"/><use transform="matrix(0.06172839506172839,0,0,0.06172839506172839,14.814814814814813,0)" xlink:href="#ao"/><use transform="matrix(0.06172839506172839,0,0,0.06172839506172839,19.691358024691354,0)" xlink:href="#ay"/><use transform="matrix(0.06172839506172839,0,0,0.06172839506172839,32.03703703703703,0)" xlink:href="#aH"/><use transform="matrix(0.06172839506172839,0,0,0.06172839506172839,43.14814814814814,0)" xlink:href="#au"/><use transform="matrix(0.06172839506172839,0,0,0.06172839506172839,49.32098765432098,0)" xlink:href="#aC"/><use transform="matrix(0.06172839506172839,0,0,0.06172839506172839,54.197530864197525,0)" xlink:href="#an"/></g><g id="J"><use transform="matrix(0.06172839506172839,0,0,0.06172839506172839,0,0)" xlink:href="#as"/><use transform="matrix(0.06172839506172839,0,0,0.06172839506172839,6.172839506172839,0)" xlink:href="#ai"/></g><g id="K"><use transform="matrix(0.06172839506172839,0,0,0.06172839506172839,0,0)" xlink:href="#ah"/><use transform="matrix(0.06172839506172839,0,0,0.06172839506172839,14.814814814814813,0)" xlink:href="#ai"/><use transform="matrix(0.06172839506172839,0,0,0.06172839506172839,29.629629629629626,0)" xlink:href="#aj"/></g><g id="L"><use transform="matrix(0.06172839506172839,0,0,0.06172839506172839,0,0)" xlink:href="#bk"/><use transform="matrix(0.06172839506172839,0,0,0.06172839506172839,14.814814814814813,0)" xlink:href="#at"/><use transform="matrix(0.06172839506172839,0,0,0.06172839506172839,27.160493827160494,0)" xlink:href="#ar"/><use transform="matrix(0.06172839506172839,0,0,0.06172839506172839,39.50617283950617,0)" xlink:href="#aU"/><use transform="matrix(0.06172839506172839,0,0,0.06172839506172839,51.85185185185185,0)" xlink:href="#ap"/><use transform="matrix(0.06172839506172839,0,0,0.06172839506172839,64.19753086419753,0)" xlink:href="#aC"/><use transform="matrix(0.06172839506172839,0,0,0.06172839506172839,69.07407407407408,0)" xlink:href="#at"/><use transform="matrix(0.06172839506172839,0,0,0.06172839506172839,81.41975308641976,0)" xlink:href="#au"/></g><g id="M"><use transform="matrix(0.06172839506172839,0,0,0.06172839506172839,0,0)" xlink:href="#as"/><use transform="matrix(0.06172839506172839,0,0,0.06172839506172839,6.172839506172839,0)" xlink:href="#at"/><use transform="matrix(0.06172839506172839,0,0,0.06172839506172839,18.51851851851852,0)" xlink:href="#au"/><use transform="matrix(0.06172839506172839,0,0,0.06172839506172839,24.691358024691358,0)" xlink:href="#av"/><use transform="matrix(0.06172839506172839,0,0,0.06172839506172839,37.03703703703704,0)" xlink:href="#aw"/><use transform="matrix(0.06172839506172839,0,0,0.06172839506172839,44.382716049382715,0)" xlink:href="#at"/><use transform="matrix(0.06172839506172839,0,0,0.06172839506172839,56.72839506172839,0)" xlink:href="#av"/><use transform="matrix(0.06172839506172839,0,0,0.06172839506172839,69.07407407407408,0)" xlink:href="#au"/></g><g id="N"><use transform="matrix(0.06172839506172839,0,0,0.06172839506172839,0,0)" xlink:href="#ak"/><use transform="matrix(0.06172839506172839,0,0,0.06172839506172839,14.814814814814813,0)" xlink:href="#aq"/><use transform="matrix(0.06172839506172839,0,0,0.06172839506172839,27.160493827160494,0)" xlink:href="#au"/><use transform="matrix(0.06172839506172839,0,0,0.06172839506172839,33.333333333333336,0)" xlink:href="#ap"/></g><g id="O"><use transform="matrix(0.06172839506172839,0,0,0.06172839506172839,0,0)" xlink:href="#am"/><use transform="matrix(0.06172839506172839,0,0,0.06172839506172839,14.814814814814813,0)" xlink:href="#an"/><use transform="matrix(0.06172839506172839,0,0,0.06172839506172839,25.925925925925924,0)" xlink:href="#ay"/><use transform="matrix(0.06172839506172839,0,0,0.06172839506172839,38.2716049382716,0)" xlink:href="#ao"/><use transform="matrix(0.06172839506172839,0,0,0.06172839506172839,43.148148148148145,0)" xlink:href="#aC"/><use transform="matrix(0.06172839506172839,0,0,0.06172839506172839,48.02469135802469,0)" xlink:href="#at"/><use transform="matrix(0.06172839506172839,0,0,0.06172839506172839,60.37037037037037,0)" xlink:href="#ax"/></g><g id="P"><use transform="matrix(0.06172839506172839,0,0,0.06172839506172839,0,0)" xlink:href="#al"/><use transform="matrix(0.06172839506172839,0,0,0.06172839506172839,20.493827160493826,0)" xlink:href="#av"/><use transform="matrix(0.06172839506172839,0,0,0.06172839506172839,32.839506172839506,0)" xlink:href="#aD"/></g><g id="Q"><use transform="matrix(0.06172839506172839,0,0,0.06172839506172839,0,0)" xlink:href="#ak"/><use transform="matrix(0.06172839506172839,0,0,0.06172839506172839,14.814814814814813,0)" xlink:href="#aU"/><use transform="matrix(0.06172839506172839,0,0,0.06172839506172839,27.160493827160494,0)" xlink:href="#aU"/><use transform="matrix(0.06172839506172839,0,0,0.06172839506172839,39.50617283950617,0)" xlink:href="#ao"/><use transform="matrix(0.06172839506172839,0,0,0.06172839506172839,44.382716049382715,0)" xlink:href="#aC"/><use transform="matrix(0.06172839506172839,0,0,0.06172839506172839,49.25925925925926,0)" xlink:href="#an"/><use transform="matrix(0.06172839506172839,0,0,0.06172839506172839,60.37037037037037,0)" xlink:href="#ay"/><use transform="matrix(0.06172839506172839,0,0,0.06172839506172839,72.71604938271605,0)" xlink:href="#au"/><use transform="matrix(0.06172839506172839,0,0,0.06172839506172839,78.88888888888889,0)" xlink:href="#aC"/><use transform="matrix(0.06172839506172839,0,0,0.06172839506172839,83.76543209876543,0)" xlink:href="#ap"/><use transform="matrix(0.06172839506172839,0,0,0.06172839506172839,96.11111111111111,0)" xlink:href="#at"/></g><g id="R"><use transform="matrix(0.06172839506172839,0,0,0.06172839506172839,0,0)" xlink:href="#ai"/><use transform="matrix(0.06172839506172839,0,0,0.06172839506172839,14.814814814814813,0)" xlink:href="#aq"/><use transform="matrix(0.06172839506172839,0,0,0.06172839506172839,27.160493827160494,0)" xlink:href="#aD"/><use transform="matrix(0.06172839506172839,0,0,0.06172839506172839,39.50617283950617,0)" xlink:href="#ao"/><use transform="matrix(0.06172839506172839,0,0,0.06172839506172839,44.382716049382715,0)" xlink:href="#aC"/><use transform="matrix(0.06172839506172839,0,0,0.06172839506172839,49.25925925925926,0)" xlink:href="#an"/></g><g id="S"><use transform="matrix(0.06172839506172839,0,0,0.06172839506172839,0,0)" xlink:href="#aw"/><use transform="matrix(0.06172839506172839,0,0,0.06172839506172839,7.345679012345679,0)" xlink:href="#ap"/><use transform="matrix(0.06172839506172839,0,0,0.06172839506172839,19.691358024691358,0)" xlink:href="#aq"/><use transform="matrix(0.06172839506172839,0,0,0.06172839506172839,32.03703703703704,0)" xlink:href="#au"/><use transform="matrix(0.06172839506172839,0,0,0.06172839506172839,38.20987654320988,0)" xlink:href="#av"/></g><g id="T"><use transform="matrix(0.06172839506172839,0,0,0.06172839506172839,0,0)" xlink:href="#au"/><use transform="matrix(0.06172839506172839,0,0,0.06172839506172839,6.172839506172839,0)" xlink:href="#ay"/><use transform="matrix(0.06172839506172839,0,0,0.06172839506172839,18.51851851851852,0)" xlink:href="#aD"/><use transform="matrix(0.06172839506172839,0,0,0.06172839506172839,30.864197530864196,0)" xlink:href="#ao"/><use transform="matrix(0.06172839506172839,0,0,0.06172839506172839,35.74074074074074,0)" xlink:href="#av"/></g><path d="M30-248c118-7 216 8 213 122C240-48 200 0 122 0H30v-248zM63-27c89 8 146-16 146-99s-60-101-146-95v194" id="bl"/><path d="M100-194c63 0 86 42 84 106H49c0 40 14 67 53 68 26 1 43-12 49-29l28 8c-11 28-37 45-77 45C44 4 14-33 15-96c1-61 26-98 85-98zm52 81c6-60-76-77-97-28-3 7-6 17-6 28h103" id="bm"/><path d="M135-143c-3-34-86-38-87 0 15 53 115 12 119 90S17 21 10-45l28-5c4 36 97 45 98 0-10-56-113-15-118-90-4-57 82-63 122-42 12 7 21 19 24 35" id="bn"/><path d="M59-47c-2 24 18 29 38 22v24C64 9 27 4 27-40v-127H5v-23h24l9-43h21v43h35v23H59v120" id="bo"/><path d="M24-231v-30h32v30H24zM24 0v-190h32V0H24" id="bp"/><path d="M117-194c89-4 53 116 60 194h-32v-121c0-31-8-49-39-48C34-167 62-67 57 0H25l-1-190h30c1 10-1 24 2 32 11-22 29-35 61-36" id="bq"/><path d="M141-36C126-15 110 5 73 4 37 3 15-17 15-53c-1-64 63-63 125-63 3-35-9-54-41-54-24 1-41 7-42 31l-33-3c5-37 33-52 76-52 45 0 72 20 72 64v82c-1 20 7 32 28 27v20c-31 9-61-2-59-35zM48-53c0 20 12 33 32 33 41-3 63-29 60-74-43 2-92-5-92 41" id="br"/><path d="M100-194c62-1 85 37 85 99 1 63-27 99-86 99S16-35 15-95c0-66 28-99 85-99zM99-20c44 1 53-31 53-75 0-43-8-75-51-75s-53 32-53 75 10 74 51 75" id="bs"/><g id="U"><use transform="matrix(0.06172839506172839,0,0,0.06172839506172839,0,0)" xlink:href="#bl"/><use transform="matrix(0.06172839506172839,0,0,0.06172839506172839,15.987654320987653,0)" xlink:href="#bm"/><use transform="matrix(0.06172839506172839,0,0,0.06172839506172839,28.333333333333332,0)" xlink:href="#bn"/><use transform="matrix(0.06172839506172839,0,0,0.06172839506172839,39.44444444444444,0)" xlink:href="#bo"/><use transform="matrix(0.06172839506172839,0,0,0.06172839506172839,45.617283950617285,0)" xlink:href="#bp"/><use transform="matrix(0.06172839506172839,0,0,0.06172839506172839,50.49382716049383,0)" xlink:href="#bq"/><use transform="matrix(0.06172839506172839,0,0,0.06172839506172839,62.839506172839506,0)" xlink:href="#br"/><use transform="matrix(0.06172839506172839,0,0,0.06172839506172839,75.18518518518519,0)" xlink:href="#bo"/><use transform="matrix(0.06172839506172839,0,0,0.06172839506172839,81.35802469135803,0)" xlink:href="#bp"/><use transform="matrix(0.06172839506172839,0,0,0.06172839506172839,86.23456790123457,0)" xlink:href="#bs"/><use transform="matrix(0.06172839506172839,0,0,0.06172839506172839,98.58024691358025,0)" xlink:href="#bq"/></g><path d="M127-220V0H93v-220H8v-28h204v28h-85" id="bt"/><path d="M114-163C36-179 61-72 57 0H25l-1-190h30c1 12-1 29 2 39 6-27 23-49 58-41v29" id="bu"/><path d="M177-190C167-65 218 103 67 71c-23-6-38-20-44-43l32-5c15 47 100 32 89-28v-30C133-14 115 1 83 1 29 1 15-40 15-95c0-56 16-97 71-98 29-1 48 16 59 35 1-10 0-23 2-32h30zM94-22c36 0 50-32 50-73 0-42-14-75-50-75-39 0-46 34-46 75s6 73 46 73" id="bv"/><g id="V"><use transform="matrix(0.06172839506172839,0,0,0.06172839506172839,0,0)" xlink:href="#bt"/><use transform="matrix(0.06172839506172839,0,0,0.06172839506172839,11.049382716049381,0)" xlink:href="#br"/><use transform="matrix(0.06172839506172839,0,0,0.06172839506172839,23.39506172839506,0)" xlink:href="#bu"/><use transform="matrix(0.06172839506172839,0,0,0.06172839506172839,30.74074074074074,0)" xlink:href="#bv"/><use transform="matrix(0.06172839506172839,0,0,0.06172839506172839,43.08641975308642,0)" xlink:href="#bm"/><use transform="matrix(0.06172839506172839,0,0,0.06172839506172839,55.432098765432094,0)" xlink:href="#bo"/></g><path fill="#333" d="M110-160c48 1 74 30 74 79 0 53-28 85-80 85-65 0-83-55-86-122-5-90 50-162 133-122 14 7 22 21 27 39l-31 6c-5-40-67-38-82-6-9 19-15 44-15 74 11-20 30-34 60-33zm-7 138c34 0 49-23 49-58s-16-56-50-56c-29 0-50 16-49 49 1 36 15 65 50 65" id="bw"/><g id="W"><use transform="matrix(0.06172839506172839,0,0,0.06172839506172839,0,0)" xlink:href="#aF"/><use transform="matrix(0.06172839506172839,0,0,0.06172839506172839,12.345679012345679,0)" xlink:href="#aI"/><use transform="matrix(0.06172839506172839,0,0,0.06172839506172839,24.691358024691358,0)" xlink:href="#aJ"/><use transform="matrix(0.06172839506172839,0,0,0.06172839506172839,30.864197530864196,0)" xlink:href="#aI"/><use transform="matrix(0.06172839506172839,0,0,0.06172839506172839,43.20987654320987,0)" xlink:href="#aJ"/><use transform="matrix(0.06172839506172839,0,0,0.06172839506172839,49.382716049382715,0)" xlink:href="#aI"/><use transform="matrix(0.06172839506172839,0,0,0.06172839506172839,61.72839506172839,0)" xlink:href="#aJ"/><use transform="matrix(0.06172839506172839,0,0,0.06172839506172839,67.90123456790123,0)" xlink:href="#aI"/><use transform="matrix(0.06172839506172839,0,0,0.06172839506172839,80.24691358024691,0)" xlink:href="#aK"/><use transform="matrix(0.06172839506172839,0,0,0.06172839506172839,86.41975308641975,0)" xlink:href="#aF"/><use transform="matrix(0.06172839506172839,0,0,0.06172839506172839,98.76543209876543,0)" xlink:href="#bw"/></g><g id="X"><use transform="matrix(0.06172839506172839,0,0,0.06172839506172839,0,0)" xlink:href="#ao"/><use transform="matrix(0.06172839506172839,0,0,0.06172839506172839,4.876543209876543,0)" xlink:href="#ap"/><use transform="matrix(0.06172839506172839,0,0,0.06172839506172839,17.22222222222222,0)" xlink:href="#an"/><use transform="matrix(0.06172839506172839,0,0,0.06172839506172839,28.333333333333332,0)" xlink:href="#ay"/><use transform="matrix(0.06172839506172839,0,0,0.06172839506172839,40.67901234567901,0)" xlink:href="#ao"/></g><g id="Y"><use transform="matrix(0.06172839506172839,0,0,0.06172839506172839,0,0)" xlink:href="#aI"/><use transform="matrix(0.06172839506172839,0,0,0.06172839506172839,12.345679012345679,0)" xlink:href="#aJ"/><use transform="matrix(0.06172839506172839,0,0,0.06172839506172839,18.51851851851852,0)" xlink:href="#aI"/><use transform="matrix(0.06172839506172839,0,0,0.06172839506172839,30.864197530864196,0)" xlink:href="#aJ"/><use transform="matrix(0.06172839506172839,0,0,0.06172839506172839,37.03703703703704,0)" xlink:href="#aI"/><use transform="matrix(0.06172839506172839,0,0,0.06172839506172839,49.382716049382715,0)" xlink:href="#aJ"/><use transform="matrix(0.06172839506172839,0,0,0.06172839506172839,55.55555555555556,0)" xlink:href="#aI"/><use transform="matrix(0.06172839506172839,0,0,0.06172839506172839,67.90123456790124,0)" xlink:href="#aK"/><use transform="matrix(0.06172839506172839,0,0,0.06172839506172839,74.07407407407408,0)" xlink:href="#aI"/></g><path fill="#333" d="M16-82v-28h88v28H16" id="bx"/><g id="Z"><use transform="matrix(0.06172839506172839,0,0,0.06172839506172839,0,0)" xlink:href="#aC"/><use transform="matrix(0.06172839506172839,0,0,0.06172839506172839,4.876543209876543,0)" xlink:href="#ax"/><use transform="matrix(0.06172839506172839,0,0,0.06172839506172839,17.22222222222222,0)" xlink:href="#az"/><use transform="matrix(0.06172839506172839,0,0,0.06172839506172839,33.20987654320987,0)" xlink:href="#bx"/><use transform="matrix(0.06172839506172839,0,0,0.06172839506172839,40.55555555555555,0)" xlink:href="#aC"/><use transform="matrix(0.06172839506172839,0,0,0.06172839506172839,45.432098765432094,0)" xlink:href="#ar"/></g><g id="aa"><use transform="matrix(0.06172839506172839,0,0,0.06172839506172839,0,0)" xlink:href="#au"/><use transform="matrix(0.06172839506172839,0,0,0.06172839506172839,6.172839506172839,0)" xlink:href="#ay"/><use transform="matrix(0.06172839506172839,0,0,0.06172839506172839,18.51851851851852,0)" xlink:href="#aD"/><use transform="matrix(0.06172839506172839,0,0,0.06172839506172839,30.864197530864196,0)" xlink:href="#ao"/><use transform="matrix(0.06172839506172839,0,0,0.06172839506172839,35.74074074074074,0)" xlink:href="#av"/></g><g id="ab"><use transform="matrix(0.06172839506172839,0,0,0.06172839506172839,0,0)" xlink:href="#aU"/><use transform="matrix(0.06172839506172839,0,0,0.06172839506172839,12.345679012345679,0)" xlink:href="#ao"/><use transform="matrix(0.06172839506172839,0,0,0.06172839506172839,17.22222222222222,0)" xlink:href="#bx"/><use transform="matrix(0.06172839506172839,0,0,0.06172839506172839,24.5679012345679,0)" xlink:href="#aC"/><use transform="matrix(0.06172839506172839,0,0,0.06172839506172839,29.444444444444443,0)" xlink:href="#ar"/></g><path fill="#333" d="M101-234c-31-9-42 10-38 44h38v23H63V0H32v-167H5v-23h27c-7-52 17-82 69-68v24" id="by"/><g id="ac"><use transform="matrix(0.06172839506172839,0,0,0.06172839506172839,0,0)" xlink:href="#by"/><use transform="matrix(0.06172839506172839,0,0,0.06172839506172839,6.172839506172839,0)" xlink:href="#ap"/><use transform="matrix(0.06172839506172839,0,0,0.06172839506172839,18.51851851851852,0)" xlink:href="#aw"/></g><path fill="#333" d="M9 0v-24l116-142H16v-24h144v24L44-24h123V0H9" id="bz"/><g id="ad"><use transform="matrix(0.06172839506172839,0,0,0.06172839506172839,0,0)" xlink:href="#ak"/><use transform="matrix(0.06172839506172839,0,0,0.06172839506172839,14.814814814814813,0)" xlink:href="#aT"/><use transform="matrix(0.06172839506172839,0,0,0.06172839506172839,33.2716049382716,0)" xlink:href="#ay"/><use transform="matrix(0.06172839506172839,0,0,0.06172839506172839,45.61728395061728,0)" xlink:href="#bz"/><use transform="matrix(0.06172839506172839,0,0,0.06172839506172839,56.72839506172839,0)" xlink:href="#ap"/><use transform="matrix(0.06172839506172839,0,0,0.06172839506172839,69.07407407407408,0)" xlink:href="#at"/></g><g id="ae"><use transform="matrix(0.06172839506172839,0,0,0.06172839506172839,0,0)" xlink:href="#am"/><use transform="matrix(0.06172839506172839,0,0,0.06172839506172839,14.814814814814813,0)" xlink:href="#aM"/></g><g id="af"><use transform="matrix(0.06172839506172839,0,0,0.06172839506172839,0,0)" xlink:href="#aB"/><use transform="matrix(0.06172839506172839,0,0,0.06172839506172839,11.11111111111111,0)" xlink:href="#aU"/><use transform="matrix(0.06172839506172839,0,0,0.06172839506172839,23.45679012345679,0)" xlink:href="#an"/><use transform="matrix(0.06172839506172839,0,0,0.06172839506172839,34.5679012345679,0)" xlink:href="#av"/><use transform="matrix(0.06172839506172839,0,0,0.06172839506172839,46.913580246913575,0)" xlink:href="#bx"/><use transform="matrix(0.06172839506172839,0,0,0.06172839506172839,54.25925925925925,0)" xlink:href="#aC"/><use transform="matrix(0.06172839506172839,0,0,0.06172839506172839,59.1358024691358,0)" xlink:href="#ar"/></g><g id="ag"><use transform="matrix(0.06172839506172839,0,0,0.06172839506172839,0,0)" xlink:href="#at"/><use transform="matrix(0.06172839506172839,0,0,0.06172839506172839,12.345679012345679,0)" xlink:href="#ay"/><use transform="matrix(0.06172839506172839,0,0,0.06172839506172839,24.691358024691358,0)" xlink:href="#au"/><use transform="matrix(0.06172839506172839,0,0,0.06172839506172839,30.864197530864196,0)" xlink:href="#bx"/><use transform="matrix(0.06172839506172839,0,0,0.06172839506172839,38.20987654320987,0)" xlink:href="#ax"/><use transform="matrix(0.06172839506172839,0,0,0.06172839506172839,50.55555555555555,0)" xlink:href="#ay"/><use transform="matrix(0.06172839506172839,0,0,0.06172839506172839,62.90123456790123,0)" xlink:href="#au"/><use transform="matrix(0.06172839506172839,0,0,0.06172839506172839,69.07407407407406,0)" xlink:href="#av"/><use transform="matrix(0.06172839506172839,0,0,0.06172839506172839,81.41975308641975,0)" xlink:href="#az"/><use transform="matrix(0.06172839506172839,0,0,0.06172839506172839,97.4074074074074,0)" xlink:href="#ay"/><use transform="matrix(0.06172839506172839,0,0,0.06172839506172839,109.75308641975309,0)" xlink:href="#aA"/><use transform="matrix(0.06172839506172839,0,0,0.06172839506172839,120.8641975308642,0)" xlink:href="#bx"/><use transform="matrix(0.06172839506172839,0,0,0.06172839506172839,128.20987654320987,0)" xlink:href="#aC"/><use transform="matrix(0.06172839506172839,0,0,0.06172839506172839,133.0864197530864,0)" xlink:href="#ar"/></g></defs></g></svg>